<?xml version="1.0" encoding="UTF-8" standalone="no"?>
<svg
   style="fill-opacity:1; color-rendering:auto; color-interpolation:auto; text-rendering:auto; stroke:black; stroke-linecap:square; stroke-miterlimit:10; shape-rendering:auto; stroke-opacity:1; fill:black; stroke-dasharray:none; font-weight:normal; stroke-width:1; font-family:'Dialog'; font-style:normal; stroke-linejoin:miter; font-size:12px; stroke-dashoffset:0; image-rendering:auto;"
   width="342"
   height="240"
   version="1.1"
   id="svg337"
   sodipodi:docname="duration.svg"
   inkscape:version="1.1.1 (3bf5ae0d25, 2021-09-20)"
   xmlns:inkscape="http://www.inkscape.org/namespaces/inkscape"
   xmlns:sodipodi="http://sodipodi.sourceforge.net/DTD/sodipodi-0.dtd"
   xmlns="http://www.w3.org/2000/svg"
   xmlns:svg="http://www.w3.org/2000/svg">
  <sodipodi:namedview
     id="namedview339"
     pagecolor="#ffffff"
     bordercolor="#666666"
     borderopacity="1.0"
     inkscape:pageshadow="2"
     inkscape:pageopacity="0.0"
     inkscape:pagecheckerboard="0"
     showgrid="false"
     inkscape:zoom="1.81875"
     inkscape:cx="-46.460481"
     inkscape:cy="101.16838"
     inkscape:window-width="2560"
     inkscape:window-height="1371"
     inkscape:window-x="0"
     inkscape:window-y="0"
     inkscape:window-maximized="1"
     inkscape:current-layer="g335" />
  <!--Generated by the Batik Graphics2D SVG Generator-->
  <defs
     id="genericDefs" />
  <g
     id="g335">
    <defs
       id="defs1">
      <clipPath
         clipPathUnits="userSpaceOnUse"
         id="clipPath1">
        <path
           d="M0 0 L342 0 L342 240 L0 240 L0 0 Z"
           id="path3" />
      </clipPath>
    </defs>
    <g
       style="fill:white; stroke:white;"
       id="g9">
      <rect
         x="0"
         y="0"
         width="342"
         style="clip-path:url(#clipPath1); stroke:none;"
         height="240"
         clip-path="url(#clipPath1)"
         id="rect7" />
    </g>
    <g
       style="fill:white; text-rendering:optimizeSpeed; color-rendering:optimizeSpeed; image-rendering:optimizeSpeed; shape-rendering:crispEdges; stroke:white; color-interpolation:sRGB;"
       id="g15">
      <rect
         x="0"
         width="342"
         height="240"
         y="0"
         style="stroke:none;"
         id="rect11" />
      <path
         style="stroke:none;"
         d="M44 214 L310 214 L310 18 L44 18 Z"
         id="path13" />
    </g>
    <g
       style="fill:rgb(38,38,38); text-rendering:geometricPrecision; image-rendering:optimizeQuality; color-rendering:optimizeQuality; stroke-linejoin:round; stroke:rgb(38,38,38); color-interpolation:linearRGB; stroke-width:0.6667;"
       id="g31">
      <line
         y2="214"
         style="fill:none;"
         x1="44"
         x2="310"
         y1="214"
         id="line17" />
      <line
         y2="211.34"
         style="fill:none;"
         x1="44"
         x2="44"
         y1="214"
         id="line19" />
      <line
         y2="211.34"
         style="fill:none;"
         x1="97.2"
         x2="97.2"
         y1="214"
         id="line21" />
      <line
         y2="211.34"
         style="fill:none;"
         x1="150.4"
         x2="150.4"
         y1="214"
         id="line23" />
      <line
         y2="211.34"
         style="fill:none;"
         x1="203.6"
         x2="203.6"
         y1="214"
         id="line25" />
      <line
         y2="211.34"
         style="fill:none;"
         x1="256.8"
         x2="256.8"
         y1="214"
         id="line27" />
      <line
         y2="211.34"
         style="fill:none;"
         x1="310"
         x2="310"
         y1="214"
         id="line29" />
    </g>
    <g
       transform="translate(44,216.1333)"
       style="font-size:10.6667px; fill:rgb(38,38,38); text-rendering:geometricPrecision; color-rendering:optimizeQuality; image-rendering:optimizeQuality; stroke:rgb(38,38,38); color-interpolation:linearRGB;"
       id="g35">
      <path
         style="stroke:none;"
         d="M-5 2.6875 Q-5.8438 2.6875 -6.2656 3.5156 Q-6.6875 4.3438 -6.6875 6 Q-6.6875 7.6406 -6.2656 8.4688 Q-5.8438 9.2969 -5 9.2969 Q-4.1562 9.2969 -3.7344 8.4688 Q-3.3125 7.6406 -3.3125 6 Q-3.3125 4.3438 -3.7344 3.5156 Q-4.1562 2.6875 -5 2.6875 ZM-5 1.8281 Q-3.6562 1.8281 -2.9453 2.8984 Q-2.2344 3.9688 -2.2344 6 Q-2.2344 8.0156 -2.9453 9.0859 Q-3.6562 10.1562 -5 10.1562 Q-6.3438 10.1562 -7.0625 9.0859 Q-7.7812 8.0156 -7.7812 6 Q-7.7812 3.9688 -7.0625 2.8984 Q-6.3438 1.8281 -5 1.8281 ZM-0.5483 8.6406 L0.5923 8.6406 L0.5923 10 L-0.5483 10 L-0.5483 8.6406 ZM2.8546 1.9844 L7.1203 1.9844 L7.1203 2.8906 L3.8546 2.8906 L3.8546 4.8594 Q4.089 4.7812 4.3234 4.7422 Q4.5578 4.7031 4.7921 4.7031 Q6.1359 4.7031 6.9171 5.4375 Q7.6984 6.1719 7.6984 7.4219 Q7.6984 8.7188 6.8937 9.4375 Q6.089 10.1562 4.6203 10.1562 Q4.1203 10.1562 3.5968 10.0703 Q3.0734 9.9844 2.5109 9.8125 L2.5109 8.7188 Q2.9953 8.9844 3.5109 9.1172 Q4.0265 9.25 4.6046 9.25 Q5.5421 9.25 6.0812 8.7578 Q6.6203 8.2656 6.6203 7.4219 Q6.6203 6.5938 6.0812 6.1016 Q5.5421 5.6094 4.6046 5.6094 Q4.1671 5.6094 3.7375 5.7109 Q3.3078 5.8125 2.8546 6.0156 L2.8546 1.9844 Z"
         id="path33" />
    </g>
    <g
       transform="translate(97.2,216.1333)"
       style="font-size:10.6667px; fill:rgb(38,38,38); text-rendering:geometricPrecision; color-rendering:optimizeQuality; image-rendering:optimizeQuality; stroke:rgb(38,38,38); color-interpolation:linearRGB;"
       id="g39">
      <path
         style="stroke:none;"
         d="M-2.1406 9.0938 L-0.3594 9.0938 L-0.3594 2.9688 L-2.2969 3.3594 L-2.2969 2.375 L-0.375 1.9844 L0.7188 1.9844 L0.7188 9.0938 L2.4844 9.0938 L2.4844 10 L-2.1406 10 L-2.1406 9.0938 Z"
         id="path37" />
    </g>
    <g
       transform="translate(150.4,216.1333)"
       style="font-size:10.6667px; fill:rgb(38,38,38); text-rendering:geometricPrecision; color-rendering:optimizeQuality; image-rendering:optimizeQuality; stroke:rgb(38,38,38); color-interpolation:linearRGB;"
       id="g43">
      <path
         style="stroke:none;"
         d="M-7.1406 9.0938 L-5.3594 9.0938 L-5.3594 2.9688 L-7.2969 3.3594 L-7.2969 2.375 L-5.375 1.9844 L-4.2812 1.9844 L-4.2812 9.0938 L-2.5156 9.0938 L-2.5156 10 L-7.1406 10 L-7.1406 9.0938 ZM-0.5483 8.6406 L0.5923 8.6406 L0.5923 10 L-0.5483 10 L-0.5483 8.6406 ZM2.8546 1.9844 L7.1203 1.9844 L7.1203 2.8906 L3.8546 2.8906 L3.8546 4.8594 Q4.089 4.7812 4.3234 4.7422 Q4.5578 4.7031 4.7921 4.7031 Q6.1359 4.7031 6.9171 5.4375 Q7.6984 6.1719 7.6984 7.4219 Q7.6984 8.7188 6.8937 9.4375 Q6.089 10.1562 4.6203 10.1562 Q4.1203 10.1562 3.5968 10.0703 Q3.0734 9.9844 2.5109 9.8125 L2.5109 8.7188 Q2.9953 8.9844 3.5109 9.1172 Q4.0265 9.25 4.6046 9.25 Q5.5421 9.25 6.0812 8.7578 Q6.6203 8.2656 6.6203 7.4219 Q6.6203 6.5938 6.0812 6.1016 Q5.5421 5.6094 4.6046 5.6094 Q4.1671 5.6094 3.7375 5.7109 Q3.3078 5.8125 2.8546 6.0156 L2.8546 1.9844 Z"
         id="path41" />
    </g>
    <g
       transform="translate(203.6,216.1333)"
       style="font-size:10.6667px; fill:rgb(38,38,38); text-rendering:geometricPrecision; color-rendering:optimizeQuality; image-rendering:optimizeQuality; stroke:rgb(38,38,38); color-interpolation:linearRGB;"
       id="g47">
      <path
         style="stroke:none;"
         d="M-1.3906 9.0938 L2.3906 9.0938 L2.3906 10 L-2.6875 10 L-2.6875 9.0938 Q-2.0781 8.4531 -1.0078 7.375 Q0.0625 6.2969 0.3281 5.9844 Q0.8438 5.3906 1.0547 4.9844 Q1.2656 4.5781 1.2656 4.1875 Q1.2656 3.5469 0.8203 3.1484 Q0.375 2.75 -0.3594 2.75 Q-0.8594 2.75 -1.4297 2.9297 Q-2 3.1094 -2.6406 3.4688 L-2.6406 2.375 Q-1.9844 2.1094 -1.4141 1.9688 Q-0.8438 1.8281 -0.375 1.8281 Q0.875 1.8281 1.6172 2.4531 Q2.3594 3.0781 2.3594 4.125 Q2.3594 4.625 2.1719 5.0625 Q1.9844 5.5 1.5 6.1094 Q1.3594 6.2656 0.6406 7.0078 Q-0.0781 7.75 -1.3906 9.0938 Z"
         id="path45" />
    </g>
    <g
       transform="translate(256.8,216.1333)"
       style="font-size:10.6667px; fill:rgb(38,38,38); text-rendering:geometricPrecision; color-rendering:optimizeQuality; image-rendering:optimizeQuality; stroke:rgb(38,38,38); color-interpolation:linearRGB;"
       id="g51">
      <path
         style="stroke:none;"
         d="M-6.3906 9.0938 L-2.6094 9.0938 L-2.6094 10 L-7.6875 10 L-7.6875 9.0938 Q-7.0781 8.4531 -6.0078 7.375 Q-4.9375 6.2969 -4.6719 5.9844 Q-4.1562 5.3906 -3.9453 4.9844 Q-3.7344 4.5781 -3.7344 4.1875 Q-3.7344 3.5469 -4.1797 3.1484 Q-4.625 2.75 -5.3594 2.75 Q-5.8594 2.75 -6.4297 2.9297 Q-7 3.1094 -7.6406 3.4688 L-7.6406 2.375 Q-6.9844 2.1094 -6.4141 1.9688 Q-5.8438 1.8281 -5.375 1.8281 Q-4.125 1.8281 -3.3828 2.4531 Q-2.6406 3.0781 -2.6406 4.125 Q-2.6406 4.625 -2.8281 5.0625 Q-3.0156 5.5 -3.5 6.1094 Q-3.6406 6.2656 -4.3594 7.0078 Q-5.0781 7.75 -6.3906 9.0938 ZM-0.5483 8.6406 L0.5923 8.6406 L0.5923 10 L-0.5483 10 L-0.5483 8.6406 ZM2.8546 1.9844 L7.1203 1.9844 L7.1203 2.8906 L3.8546 2.8906 L3.8546 4.8594 Q4.089 4.7812 4.3234 4.7422 Q4.5578 4.7031 4.7921 4.7031 Q6.1359 4.7031 6.9171 5.4375 Q7.6984 6.1719 7.6984 7.4219 Q7.6984 8.7188 6.8937 9.4375 Q6.089 10.1562 4.6203 10.1562 Q4.1203 10.1562 3.5968 10.0703 Q3.0734 9.9844 2.5109 9.8125 L2.5109 8.7188 Q2.9953 8.9844 3.5109 9.1172 Q4.0265 9.25 4.6046 9.25 Q5.5421 9.25 6.0812 8.7578 Q6.6203 8.2656 6.6203 7.4219 Q6.6203 6.5938 6.0812 6.1016 Q5.5421 5.6094 4.6046 5.6094 Q4.1671 5.6094 3.7375 5.7109 Q3.3078 5.8125 2.8546 6.0156 L2.8546 1.9844 Z"
         id="path49" />
    </g>
    <g
       transform="translate(310,216.1333)"
       style="font-size:10.6667px; fill:rgb(38,38,38); text-rendering:geometricPrecision; color-rendering:optimizeQuality; image-rendering:optimizeQuality; stroke:rgb(38,38,38); color-interpolation:linearRGB;"
       id="g55">
      <path
         style="stroke:none;"
         d="M0.9688 5.6719 Q1.75 5.8438 2.1875 6.3672 Q2.625 6.8906 2.625 7.6719 Q2.625 8.8594 1.8047 9.5078 Q0.9844 10.1562 -0.5156 10.1562 Q-1.0312 10.1562 -1.5625 10.0547 Q-2.0938 9.9531 -2.6562 9.7656 L-2.6562 8.7031 Q-2.2031 8.9688 -1.6719 9.1094 Q-1.1406 9.25 -0.5469 9.25 Q0.4688 9.25 1 8.8438 Q1.5312 8.4375 1.5312 7.6719 Q1.5312 6.9531 1.0391 6.5547 Q0.5469 6.1562 -0.3438 6.1562 L-1.2812 6.1562 L-1.2812 5.2656 L-0.2969 5.2656 Q0.5 5.2656 0.9219 4.9453 Q1.3438 4.625 1.3438 4.0312 Q1.3438 3.4062 0.9062 3.0781 Q0.4688 2.75 -0.3438 2.75 Q-0.7812 2.75 -1.2969 2.8438 Q-1.8125 2.9375 -2.4219 3.1406 L-2.4219 2.1719 Q-1.7969 2 -1.2578 1.9141 Q-0.7188 1.8281 -0.25 1.8281 Q0.9844 1.8281 1.7109 2.3906 Q2.4375 2.9531 2.4375 3.9219 Q2.4375 4.5781 2.0547 5.0391 Q1.6719 5.5 0.9688 5.6719 Z"
         id="path53" />
    </g>
    <g
       transform="translate(177.0001,229.1333)"
       style="font-size:10.6667px; fill:rgb(38,38,38); text-rendering:geometricPrecision; image-rendering:optimizeQuality; color-rendering:optimizeQuality; font-family:'mwa_cmr10'; stroke:rgb(38,38,38); color-interpolation:linearRGB;"
       id="g101">
      <path
         style="stroke:none;"
         d="M-55.9917 9.085 Q-56.6479 9.085 -57.1948 8.7412 Q-57.7417 8.3975 -58.0542 7.8193 Q-58.3667 7.2412 -58.3667 6.585 Q-58.3667 5.9287 -58.0542 5.335 Q-57.7417 4.7412 -57.1948 4.3818 Q-56.6479 4.0225 -55.9917 4.0225 Q-55.3354 4.0225 -54.812 4.2803 Q-54.2885 4.5381 -54.2885 5.1162 Q-54.2885 5.3193 -54.437 5.4834 Q-54.5854 5.6475 -54.8042 5.6475 Q-55.0229 5.6475 -55.1792 5.4834 Q-55.3354 5.3193 -55.3354 5.1162 Q-55.3354 4.9131 -55.2104 4.7725 Q-55.0854 4.6318 -54.9135 4.6006 Q-55.2885 4.3506 -55.976 4.3506 Q-56.5073 4.3506 -56.8276 4.7021 Q-57.1479 5.0537 -57.2729 5.5693 Q-57.3979 6.085 -57.3979 6.585 Q-57.3979 7.1162 -57.2417 7.6162 Q-57.0854 8.1162 -56.7339 8.4365 Q-56.3823 8.7568 -55.851 8.7568 Q-55.3354 8.7568 -54.9682 8.4365 Q-54.601 8.1162 -54.4604 7.6006 Q-54.4604 7.5381 -54.3823 7.5381 L-54.2417 7.5381 Q-54.2104 7.5381 -54.187 7.5693 Q-54.1635 7.6006 -54.1635 7.6318 L-54.1635 7.6631 Q-54.3198 8.3193 -54.8198 8.7021 Q-55.3198 9.085 -55.9917 9.085 Z"
         id="path57" />
      <path
         style="stroke:none;"
         d="M-51.2353 9.085 Q-51.8916 9.085 -52.4541 8.749 Q-53.0166 8.4131 -53.3447 7.8506 Q-53.6728 7.2881 -53.6728 6.6162 Q-53.6728 6.1162 -53.4931 5.6475 Q-53.3134 5.1787 -52.9775 4.8115 Q-52.6416 4.4443 -52.1962 4.2334 Q-51.7509 4.0225 -51.2353 4.0225 Q-50.5634 4.0225 -50.0087 4.3818 Q-49.4541 4.7412 -49.1259 5.3428 Q-48.7978 5.9443 -48.7978 6.6162 Q-48.7978 7.2725 -49.1259 7.8428 Q-49.4541 8.4131 -50.0166 8.749 Q-50.5791 9.085 -51.2353 9.085 ZM-51.2353 8.7568 Q-50.3603 8.7568 -50.0634 8.1162 Q-49.7666 7.4756 -49.7666 6.4912 Q-49.7666 5.9443 -49.8212 5.5771 Q-49.8759 5.21 -50.0791 4.9131 Q-50.2041 4.7412 -50.3916 4.6006 Q-50.5791 4.46 -50.7978 4.3896 Q-51.0166 4.3193 -51.2353 4.3193 Q-51.5791 4.3193 -51.8916 4.4756 Q-52.2041 4.6318 -52.4072 4.9131 Q-52.6103 5.2256 -52.665 5.6006 Q-52.7197 5.9756 -52.7197 6.4912 Q-52.7197 7.1162 -52.6103 7.6084 Q-52.5009 8.1006 -52.1806 8.4287 Q-51.8603 8.7568 -51.2353 8.7568 Z"
         id="path59" />
      <path
         style="stroke:none;"
         d="M-48.3238 8.96 L-48.3238 8.5693 Q-47.9488 8.5693 -47.7066 8.5146 Q-47.4645 8.46 -47.4645 8.2256 L-47.4645 5.2256 Q-47.4645 4.9287 -47.5504 4.7959 Q-47.6363 4.6631 -47.8082 4.6318 Q-47.9801 4.6006 -48.3238 4.6006 L-48.3238 4.21 L-46.7301 4.1006 L-46.7301 5.1787 Q-46.5113 4.6943 -46.0738 4.3975 Q-45.6363 4.1006 -45.1363 4.1006 Q-44.3707 4.1006 -43.9879 4.4678 Q-43.6051 4.835 -43.6051 5.585 L-43.6051 8.2256 Q-43.6051 8.46 -43.3629 8.5146 Q-43.1207 8.5693 -42.7457 8.5693 L-42.7457 8.96 L-45.2613 8.96 L-45.2613 8.5693 Q-44.8863 8.5693 -44.6441 8.5146 Q-44.402 8.46 -44.402 8.2256 L-44.402 5.6162 Q-44.402 5.0693 -44.5582 4.7256 Q-44.7145 4.3818 -45.1988 4.3818 Q-45.8395 4.3818 -46.2457 4.8896 Q-46.652 5.3975 -46.652 6.0537 L-46.652 8.2256 Q-46.652 8.46 -46.4176 8.5146 Q-46.1832 8.5693 -45.8082 8.5693 L-45.8082 8.96 L-48.3238 8.96 Z"
         id="path61" />
      <path
         style="stroke:none;"
         d="M-41.8973 7.6318 L-41.8973 4.6006 L-42.8192 4.6006 L-42.8192 4.3193 Q-42.1004 4.3193 -41.7567 3.6475 Q-41.4129 2.9756 -41.4129 2.1943 L-41.1004 2.1943 L-41.1004 4.21 L-39.5536 4.21 L-39.5536 4.6006 L-41.1004 4.6006 L-41.1004 7.6162 Q-41.1004 8.0693 -40.9442 8.4131 Q-40.7879 8.7568 -40.3973 8.7568 Q-40.0223 8.7568 -39.8583 8.3975 Q-39.6942 8.0381 -39.6942 7.6162 L-39.6942 6.96 L-39.3661 6.96 L-39.3661 7.6318 Q-39.3661 7.9756 -39.4911 8.3115 Q-39.6161 8.6475 -39.8661 8.8662 Q-40.1161 9.085 -40.4754 9.085 Q-41.1317 9.085 -41.5145 8.6865 Q-41.8973 8.2881 -41.8973 7.6318 Z"
         id="path63" />
      <path
         style="stroke:none;"
         d="M-38.5929 8.96 L-38.5929 8.5693 Q-38.2179 8.5693 -37.9757 8.5146 Q-37.7335 8.46 -37.7335 8.2256 L-37.7335 5.2256 Q-37.7335 4.9287 -37.8195 4.7959 Q-37.9054 4.6631 -38.0695 4.6318 Q-38.2335 4.6006 -38.5929 4.6006 L-38.5929 4.21 L-37.0148 4.1006 L-37.0148 5.1787 Q-36.8429 4.6943 -36.5148 4.3975 Q-36.1867 4.1006 -35.7179 4.1006 Q-35.3898 4.1006 -35.132 4.2959 Q-34.8742 4.4912 -34.8742 4.8037 Q-34.8742 5.0068 -35.0148 5.1553 Q-35.1554 5.3037 -35.3742 5.3037 Q-35.5773 5.3037 -35.7179 5.1553 Q-35.8585 5.0068 -35.8585 4.8037 Q-35.8585 4.5068 -35.6554 4.3818 L-35.7179 4.3818 Q-36.1554 4.3818 -36.4367 4.7021 Q-36.7179 5.0225 -36.8429 5.5068 Q-36.9679 5.9912 -36.9679 6.4131 L-36.9679 8.2256 Q-36.9679 8.5693 -35.8898 8.5693 L-35.8898 8.96 L-38.5929 8.96 Z"
         id="path65" />
      <path
         style="stroke:none;"
         d="M-31.9464 9.085 Q-32.6026 9.085 -33.1651 8.749 Q-33.7276 8.4131 -34.0557 7.8506 Q-34.3839 7.2881 -34.3839 6.6162 Q-34.3839 6.1162 -34.2042 5.6475 Q-34.0245 5.1787 -33.6886 4.8115 Q-33.3526 4.4443 -32.9073 4.2334 Q-32.462 4.0225 -31.9464 4.0225 Q-31.2745 4.0225 -30.7198 4.3818 Q-30.1651 4.7412 -29.837 5.3428 Q-29.5089 5.9443 -29.5089 6.6162 Q-29.5089 7.2725 -29.837 7.8428 Q-30.1651 8.4131 -30.7276 8.749 Q-31.2901 9.085 -31.9464 9.085 ZM-31.9464 8.7568 Q-31.0714 8.7568 -30.7745 8.1162 Q-30.4776 7.4756 -30.4776 6.4912 Q-30.4776 5.9443 -30.5323 5.5771 Q-30.587 5.21 -30.7901 4.9131 Q-30.9151 4.7412 -31.1026 4.6006 Q-31.2901 4.46 -31.5089 4.3896 Q-31.7276 4.3193 -31.9464 4.3193 Q-32.2901 4.3193 -32.6026 4.4756 Q-32.9151 4.6318 -33.1182 4.9131 Q-33.3214 5.2256 -33.3761 5.6006 Q-33.4307 5.9756 -33.4307 6.4912 Q-33.4307 7.1162 -33.3214 7.6084 Q-33.212 8.1006 -32.8917 8.4287 Q-32.5714 8.7568 -31.9464 8.7568 Z"
         id="path67" />
      <path
         style="stroke:none;"
         d="M-29.0193 8.96 L-29.0193 8.5693 Q-28.6443 8.5693 -28.4021 8.5146 Q-28.1599 8.46 -28.1599 8.2256 L-28.1599 2.4443 Q-28.1599 2.1475 -28.2536 2.0225 Q-28.3474 1.8975 -28.5115 1.8662 Q-28.6755 1.835 -29.0193 1.835 L-29.0193 1.4443 L-27.3943 1.335 L-27.3943 8.2256 Q-27.3943 8.46 -27.1521 8.5146 Q-26.9099 8.5693 -26.5349 8.5693 L-26.5349 8.96 L-29.0193 8.96 Z"
         id="path69" />
      <path
         style="stroke:none;"
         d="M-21.657 7.6475 L-21.657 5.2256 Q-21.657 4.9287 -21.7429 4.7959 Q-21.8289 4.6631 -22.0007 4.6318 Q-22.1726 4.6006 -22.5164 4.6006 L-22.5164 4.21 L-20.8445 4.1006 L-20.8445 7.6475 Q-20.8445 8.085 -20.7898 8.3193 Q-20.7351 8.5537 -20.532 8.6709 Q-20.3289 8.7881 -19.8914 8.7881 Q-19.2976 8.7881 -18.9461 8.2959 Q-18.5945 7.8037 -18.5945 7.1787 L-18.5945 5.2256 Q-18.5945 4.9287 -18.6882 4.7959 Q-18.782 4.6631 -18.9461 4.6318 Q-19.1101 4.6006 -19.4539 4.6006 L-19.4539 4.21 L-17.7976 4.1006 L-17.7976 7.96 Q-17.7976 8.2568 -17.7117 8.3818 Q-17.6257 8.5068 -17.4539 8.5381 Q-17.282 8.5693 -16.9382 8.5693 L-16.9382 8.96 L-18.5632 9.085 L-18.5632 8.1475 Q-18.7664 8.5693 -19.1336 8.8271 Q-19.5007 9.085 -19.9382 9.085 Q-20.7351 9.085 -21.1961 8.749 Q-21.657 8.4131 -21.657 7.6475 Z"
         id="path71" />
      <path
         style="stroke:none;"
         d="M-16.6373 11.085 L-16.6373 10.71 Q-16.2623 10.71 -16.0201 10.6475 Q-15.7779 10.585 -15.7779 10.3506 L-15.7779 5.0537 Q-15.7779 4.7568 -15.9889 4.6787 Q-16.1998 4.6006 -16.6373 4.6006 L-16.6373 4.21 L-15.0123 4.1006 L-15.0123 4.7881 Q-14.6998 4.4443 -14.3014 4.2725 Q-13.9029 4.1006 -13.4498 4.1006 Q-12.8092 4.1006 -12.2857 4.4521 Q-11.7623 4.8037 -11.4732 5.374 Q-11.1842 5.9443 -11.1842 6.585 Q-11.1842 7.2568 -11.5045 7.8271 Q-11.8248 8.3975 -12.3873 8.7412 Q-12.9498 9.085 -13.6217 9.085 Q-14.4186 9.085 -14.9811 8.4287 L-14.9811 10.3506 Q-14.9811 10.585 -14.7311 10.6475 Q-14.4811 10.71 -14.1217 10.71 L-14.1217 11.085 L-16.6373 11.085 ZM-14.9811 7.8975 Q-14.7779 8.2881 -14.4342 8.5381 Q-14.0904 8.7881 -13.6842 8.7881 Q-13.3092 8.7881 -13.0123 8.585 Q-12.7154 8.3818 -12.5201 8.0381 Q-12.3248 7.6943 -12.2311 7.3193 Q-12.1373 6.9443 -12.1373 6.585 Q-12.1373 6.1475 -12.2936 5.6318 Q-12.4498 5.1162 -12.7779 4.7646 Q-13.1061 4.4131 -13.5592 4.4131 Q-14.0123 4.4131 -14.3795 4.6396 Q-14.7467 4.8662 -14.9811 5.2568 L-14.9811 7.8975 Z"
         id="path73" />
      <path
         style="stroke:none;"
         d="M-8.0088 9.085 Q-8.6651 9.085 -9.1963 8.7334 Q-9.7276 8.3818 -10.0322 7.8037 Q-10.3369 7.2256 -10.3369 6.585 Q-10.3369 5.9131 -10.0088 5.3428 Q-9.6807 4.7725 -9.126 4.4365 Q-8.5713 4.1006 -7.8994 4.1006 Q-7.4932 4.1006 -7.1338 4.2725 Q-6.7744 4.4443 -6.5088 4.7412 L-6.5088 2.4443 Q-6.5088 2.1475 -6.5947 2.0225 Q-6.6807 1.8975 -6.8447 1.8662 Q-7.0088 1.835 -7.3682 1.835 L-7.3682 1.4443 L-5.7276 1.335 L-5.7276 7.96 Q-5.7276 8.2568 -5.6416 8.3818 Q-5.5557 8.5068 -5.3916 8.5381 Q-5.2276 8.5693 -4.8838 8.5693 L-4.8838 8.96 L-6.5401 9.085 L-6.5401 8.3975 Q-6.8213 8.7256 -7.2119 8.9053 Q-7.6026 9.085 -8.0088 9.085 ZM-9.1338 8.0068 Q-8.9463 8.3662 -8.6338 8.5771 Q-8.3213 8.7881 -7.9463 8.7881 Q-7.4932 8.7881 -7.1104 8.5303 Q-6.7276 8.2725 -6.5401 7.8506 L-6.5401 5.21 Q-6.6651 4.9756 -6.8604 4.7803 Q-7.0557 4.585 -7.3057 4.4834 Q-7.5557 4.3818 -7.8213 4.3818 Q-8.3994 4.3818 -8.751 4.71 Q-9.1026 5.0381 -9.2354 5.5381 Q-9.3682 6.0381 -9.3682 6.6006 Q-9.3682 7.0381 -9.3291 7.3662 Q-9.2901 7.6943 -9.1338 8.0068 Z"
         id="path75" />
      <path
         style="stroke:none;"
         d="M-4.3329 7.8818 Q-4.3329 7.2256 -3.8172 6.8115 Q-3.3016 6.3975 -2.575 6.2334 Q-1.8485 6.0693 -1.2079 6.0693 L-1.2079 5.6162 Q-1.2079 5.3037 -1.3485 4.999 Q-1.4891 4.6943 -1.7469 4.5068 Q-2.0047 4.3193 -2.3329 4.3193 Q-3.0516 4.3193 -3.4422 4.6475 Q-3.2235 4.6475 -3.0907 4.8037 Q-2.9579 4.96 -2.9579 5.1787 Q-2.9579 5.3975 -3.1141 5.5537 Q-3.2704 5.71 -3.4735 5.71 Q-3.7079 5.71 -3.8641 5.5537 Q-4.0204 5.3975 -4.0204 5.1787 Q-4.0204 4.6006 -3.4891 4.3115 Q-2.9579 4.0225 -2.3329 4.0225 Q-1.8797 4.0225 -1.4266 4.2178 Q-0.9735 4.4131 -0.6922 4.7646 Q-0.411 5.1162 -0.411 5.585 L-0.411 8.0693 Q-0.411 8.2881 -0.3172 8.4678 Q-0.2235 8.6475 -0.0204 8.6475 Q0.1515 8.6475 0.2453 8.46 Q0.339 8.2725 0.339 8.0693 L0.339 7.3662 L0.6515 7.3662 L0.6515 8.0693 Q0.6515 8.3193 0.5265 8.5381 Q0.4015 8.7568 0.1828 8.8896 Q-0.036 9.0225 -0.286 9.0225 Q-0.6141 9.0225 -0.8485 8.7725 Q-1.0829 8.5225 -1.1141 8.1787 Q-1.3172 8.6006 -1.7079 8.8428 Q-2.0985 9.085 -2.5516 9.085 Q-2.9735 9.085 -3.3797 8.96 Q-3.786 8.835 -4.0594 8.5693 Q-4.3329 8.3037 -4.3329 7.8818 ZM-3.4422 7.8818 Q-3.4422 8.2725 -3.1532 8.5303 Q-2.8641 8.7881 -2.4891 8.7881 Q-2.1297 8.7881 -1.8407 8.6162 Q-1.5516 8.4443 -1.3797 8.1318 Q-1.2079 7.8193 -1.2079 7.4912 L-1.2079 6.3506 Q-1.7079 6.3506 -2.2313 6.5146 Q-2.7547 6.6787 -3.0985 7.0225 Q-3.4422 7.3662 -3.4422 7.8818 Z"
         id="path77" />
      <path
         style="stroke:none;"
         d="M1.688 7.6318 L1.688 4.6006 L0.7661 4.6006 L0.7661 4.3193 Q1.4849 4.3193 1.8286 3.6475 Q2.1724 2.9756 2.1724 2.1943 L2.4849 2.1943 L2.4849 4.21 L4.0317 4.21 L4.0317 4.6006 L2.4849 4.6006 L2.4849 7.6162 Q2.4849 8.0693 2.6411 8.4131 Q2.7974 8.7568 3.188 8.7568 Q3.563 8.7568 3.7271 8.3975 Q3.8911 8.0381 3.8911 7.6162 L3.8911 6.96 L4.2192 6.96 L4.2192 7.6318 Q4.2192 7.9756 4.0942 8.3115 Q3.9692 8.6475 3.7192 8.8662 Q3.4692 9.085 3.1099 9.085 Q2.4536 9.085 2.0708 8.6865 Q1.688 8.2881 1.688 7.6318 Z"
         id="path79" />
      <path
         style="stroke:none;"
         d="M7.4455 9.085 Q6.7736 9.085 6.219 8.7334 Q5.6643 8.3818 5.344 7.7959 Q5.0236 7.21 5.0236 6.5537 Q5.0236 5.8975 5.3127 5.3193 Q5.6018 4.7412 6.1252 4.3818 Q6.6486 4.0225 7.2893 4.0225 Q7.8049 4.0225 8.1721 4.1943 Q8.5393 4.3662 8.7815 4.6709 Q9.0236 4.9756 9.1486 5.3818 Q9.2736 5.7881 9.2736 6.2725 Q9.2736 6.4131 9.1643 6.4131 L5.9768 6.4131 L5.9768 6.5381 Q5.9768 7.4443 6.344 8.1006 Q6.7111 8.7568 7.5549 8.7568 Q7.883 8.7568 8.1721 8.6084 Q8.4611 8.46 8.6721 8.1943 Q8.883 7.9287 8.9611 7.6162 Q8.9768 7.585 9.0002 7.5537 Q9.0236 7.5225 9.0705 7.5225 L9.1643 7.5225 Q9.2736 7.5225 9.2736 7.6631 Q9.1174 8.2881 8.6018 8.6865 Q8.0861 9.085 7.4455 9.085 ZM5.9924 6.1475 L8.4924 6.1475 Q8.4924 5.7256 8.383 5.3037 Q8.2736 4.8818 8.0002 4.6006 Q7.7268 4.3193 7.2893 4.3193 Q6.6643 4.3193 6.3283 4.9053 Q5.9924 5.4912 5.9924 6.1475 Z"
         id="path81" />
      <path
         style="stroke:none;"
         d="M13.2887 11.085 L13.2887 10.71 Q13.6637 10.71 13.9059 10.6475 Q14.1481 10.585 14.1481 10.3506 L14.1481 5.0537 Q14.1481 4.7568 13.9371 4.6787 Q13.7262 4.6006 13.2887 4.6006 L13.2887 4.21 L14.9137 4.1006 L14.9137 4.7881 Q15.2262 4.4443 15.6246 4.2725 Q16.0231 4.1006 16.4762 4.1006 Q17.1168 4.1006 17.6403 4.4521 Q18.1637 4.8037 18.4528 5.374 Q18.7418 5.9443 18.7418 6.585 Q18.7418 7.2568 18.4215 7.8271 Q18.1012 8.3975 17.5387 8.7412 Q16.9762 9.085 16.3043 9.085 Q15.5074 9.085 14.9449 8.4287 L14.9449 10.3506 Q14.9449 10.585 15.1949 10.6475 Q15.4449 10.71 15.8043 10.71 L15.8043 11.085 L13.2887 11.085 ZM14.9449 7.8975 Q15.1481 8.2881 15.4918 8.5381 Q15.8356 8.7881 16.2418 8.7881 Q16.6168 8.7881 16.9137 8.585 Q17.2106 8.3818 17.4059 8.0381 Q17.6012 7.6943 17.6949 7.3193 Q17.7887 6.9443 17.7887 6.585 Q17.7887 6.1475 17.6324 5.6318 Q17.4762 5.1162 17.1481 4.7646 Q16.8199 4.4131 16.3668 4.4131 Q15.9137 4.4131 15.5465 4.6396 Q15.1793 4.8662 14.9449 5.2568 L14.9449 7.8975 Z"
         id="path83" />
      <path
         style="stroke:none;"
         d="M21.9641 9.085 Q21.2922 9.085 20.7375 8.7334 Q20.1828 8.3818 19.8625 7.7959 Q19.5422 7.21 19.5422 6.5537 Q19.5422 5.8975 19.8313 5.3193 Q20.1203 4.7412 20.6438 4.3818 Q21.1672 4.0225 21.8078 4.0225 Q22.3234 4.0225 22.6906 4.1943 Q23.0578 4.3662 23.3 4.6709 Q23.5422 4.9756 23.6672 5.3818 Q23.7922 5.7881 23.7922 6.2725 Q23.7922 6.4131 23.6828 6.4131 L20.4953 6.4131 L20.4953 6.5381 Q20.4953 7.4443 20.8625 8.1006 Q21.2297 8.7568 22.0734 8.7568 Q22.4016 8.7568 22.6906 8.6084 Q22.9797 8.46 23.1906 8.1943 Q23.4016 7.9287 23.4797 7.6162 Q23.4953 7.585 23.5188 7.5537 Q23.5422 7.5225 23.5891 7.5225 L23.6828 7.5225 Q23.7922 7.5225 23.7922 7.6631 Q23.6359 8.2881 23.1203 8.6865 Q22.6047 9.085 21.9641 9.085 ZM20.5109 6.1475 L23.0109 6.1475 Q23.0109 5.7256 22.9016 5.3037 Q22.7922 4.8818 22.5188 4.6006 Q22.2453 4.3193 21.8078 4.3193 Q21.1828 4.3193 20.8469 4.9053 Q20.5109 5.4912 20.5109 6.1475 Z"
         id="path85" />
      <path
         style="stroke:none;"
         d="M24.2517 8.96 L24.2517 8.5693 Q24.6267 8.5693 24.8689 8.5146 Q25.1111 8.46 25.1111 8.2256 L25.1111 5.2256 Q25.1111 4.9287 25.0251 4.7959 Q24.9392 4.6631 24.7751 4.6318 Q24.6111 4.6006 24.2517 4.6006 L24.2517 4.21 L25.8298 4.1006 L25.8298 5.1787 Q26.0017 4.6943 26.3298 4.3975 Q26.6579 4.1006 27.1267 4.1006 Q27.4548 4.1006 27.7126 4.2959 Q27.9704 4.4912 27.9704 4.8037 Q27.9704 5.0068 27.8298 5.1553 Q27.6892 5.3037 27.4704 5.3037 Q27.2673 5.3037 27.1267 5.1553 Q26.9861 5.0068 26.9861 4.8037 Q26.9861 4.5068 27.1892 4.3818 L27.1267 4.3818 Q26.6892 4.3818 26.4079 4.7021 Q26.1267 5.0225 26.0017 5.5068 Q25.8767 5.9912 25.8767 6.4131 L25.8767 8.2256 Q25.8767 8.5693 26.9548 8.5693 L26.9548 8.96 L24.2517 8.96 Z"
         id="path87" />
      <path
         style="stroke:none;"
         d="M28.492 8.96 L28.492 8.5693 Q28.867 8.5693 29.1091 8.5146 Q29.3513 8.46 29.3513 8.2256 L29.3513 5.2256 Q29.3513 4.8037 29.1873 4.7021 Q29.0232 4.6006 28.5388 4.6006 L28.5388 4.21 L30.117 4.1006 L30.117 8.2256 Q30.117 8.46 30.3279 8.5146 Q30.5388 8.5693 30.8826 8.5693 L30.8826 8.96 L28.492 8.96 ZM28.9607 2.21 Q28.9607 1.96 29.1404 1.7803 Q29.3201 1.6006 29.5545 1.6006 Q29.7107 1.6006 29.8591 1.6787 Q30.0076 1.7568 30.0857 1.9053 Q30.1638 2.0537 30.1638 2.21 Q30.1638 2.4443 29.9841 2.624 Q29.8045 2.8037 29.5545 2.8037 Q29.3201 2.8037 29.1404 2.624 Q28.9607 2.4443 28.9607 2.21 Z"
         id="path89" />
      <path
         style="stroke:none;"
         d="M33.8612 9.085 Q33.2049 9.085 32.6424 8.749 Q32.0799 8.4131 31.7518 7.8506 Q31.4237 7.2881 31.4237 6.6162 Q31.4237 6.1162 31.6034 5.6475 Q31.7831 5.1787 32.119 4.8115 Q32.4549 4.4443 32.9002 4.2334 Q33.3456 4.0225 33.8612 4.0225 Q34.5331 4.0225 35.0877 4.3818 Q35.6424 4.7412 35.9706 5.3428 Q36.2987 5.9443 36.2987 6.6162 Q36.2987 7.2725 35.9706 7.8428 Q35.6424 8.4131 35.0799 8.749 Q34.5174 9.085 33.8612 9.085 ZM33.8612 8.7568 Q34.7362 8.7568 35.0331 8.1162 Q35.3299 7.4756 35.3299 6.4912 Q35.3299 5.9443 35.2752 5.5771 Q35.2206 5.21 35.0174 4.9131 Q34.8924 4.7412 34.7049 4.6006 Q34.5174 4.46 34.2987 4.3896 Q34.0799 4.3193 33.8612 4.3193 Q33.5174 4.3193 33.2049 4.4756 Q32.8924 4.6318 32.6893 4.9131 Q32.4862 5.2256 32.4315 5.6006 Q32.3768 5.9756 32.3768 6.4912 Q32.3768 7.1162 32.4862 7.6084 Q32.5956 8.1006 32.9159 8.4287 Q33.2362 8.7568 33.8612 8.7568 Z"
         id="path91" />
      <path
         style="stroke:none;"
         d="M39.4283 9.085 Q38.7721 9.085 38.2408 8.7334 Q37.7096 8.3818 37.4049 7.8037 Q37.1002 7.2256 37.1002 6.585 Q37.1002 5.9131 37.4283 5.3428 Q37.7565 4.7725 38.3111 4.4365 Q38.8658 4.1006 39.5377 4.1006 Q39.944 4.1006 40.3033 4.2725 Q40.6627 4.4443 40.9283 4.7412 L40.9283 2.4443 Q40.9283 2.1475 40.8424 2.0225 Q40.7565 1.8975 40.5924 1.8662 Q40.4283 1.835 40.069 1.835 L40.069 1.4443 L41.7096 1.335 L41.7096 7.96 Q41.7096 8.2568 41.7955 8.3818 Q41.8815 8.5068 42.0455 8.5381 Q42.2096 8.5693 42.5533 8.5693 L42.5533 8.96 L40.8971 9.085 L40.8971 8.3975 Q40.6158 8.7256 40.2252 8.9053 Q39.8346 9.085 39.4283 9.085 ZM38.3033 8.0068 Q38.4908 8.3662 38.8033 8.5771 Q39.1158 8.7881 39.4908 8.7881 Q39.944 8.7881 40.3268 8.5303 Q40.7096 8.2725 40.8971 7.8506 L40.8971 5.21 Q40.7721 4.9756 40.5768 4.7803 Q40.3815 4.585 40.1315 4.4834 Q39.8815 4.3818 39.6158 4.3818 Q39.0377 4.3818 38.6861 4.71 Q38.3346 5.0381 38.2018 5.5381 Q38.069 6.0381 38.069 6.6006 Q38.069 7.0381 38.108 7.3662 Q38.1471 7.6943 38.3033 8.0068 Z"
         id="path93" />
      <path
         style="stroke:none;"
         d="M49.6286 11.6943 Q49.0192 11.21 48.5739 10.585 Q48.1286 9.96 47.8473 9.249 Q47.5661 8.5381 47.4255 7.7646 Q47.2848 6.9912 47.2848 6.21 Q47.2848 5.4131 47.4255 4.6396 Q47.5661 3.8662 47.8551 3.1553 Q48.1442 2.4443 48.5895 1.8193 Q49.0348 1.1943 49.6286 0.7256 Q49.6286 0.71 49.6911 0.71 L49.7848 0.71 Q49.8161 0.71 49.8473 0.7412 Q49.8786 0.7725 49.8786 0.8037 Q49.8786 0.8506 49.8473 0.8818 Q49.3161 1.3975 48.9567 1.999 Q48.5973 2.6006 48.3786 3.2803 Q48.1598 3.96 48.0661 4.6865 Q47.9723 5.4131 47.9723 6.21 Q47.9723 9.71 49.8473 11.5225 Q49.8786 11.5537 49.8786 11.6162 Q49.8786 11.6475 49.8473 11.6787 Q49.8161 11.71 49.7848 11.71 L49.6911 11.71 Q49.6286 11.71 49.6286 11.6943 Z"
         id="path95" />
      <path
         style="stroke:none;"
         d="M50.7299 8.9912 L50.7299 7.1943 Q50.7299 7.1162 50.8392 7.1162 L50.9642 7.1162 Q51.0267 7.1162 51.058 7.1943 Q51.3549 8.7881 52.5424 8.7881 Q53.058 8.7881 53.4096 8.5537 Q53.7611 8.3193 53.7611 7.8193 Q53.7611 7.4756 53.4877 7.2256 Q53.2142 6.9756 52.8392 6.8818 L52.1049 6.7412 Q51.7299 6.6631 51.4252 6.4912 Q51.1205 6.3193 50.9252 6.0459 Q50.7299 5.7725 50.7299 5.3975 Q50.7299 4.9131 50.9877 4.6084 Q51.2455 4.3037 51.6517 4.1631 Q52.058 4.0225 52.5424 4.0225 Q53.1049 4.0225 53.5111 4.335 L53.8392 4.0537 Q53.8392 4.0225 53.8861 4.0225 L53.9642 4.0225 Q53.9955 4.0225 54.0267 4.0537 Q54.058 4.085 54.058 4.1162 L54.058 5.5537 Q54.058 5.6631 53.9642 5.6631 L53.8392 5.6631 Q53.7455 5.6631 53.7455 5.5537 Q53.7455 4.9912 53.4252 4.6396 Q53.1049 4.2881 52.5267 4.2881 Q52.0267 4.2881 51.6674 4.4678 Q51.308 4.6475 51.308 5.1006 Q51.308 5.3975 51.5658 5.6006 Q51.8236 5.8037 52.183 5.8818 L52.9174 6.0225 Q53.2924 6.1006 53.6205 6.3115 Q53.9486 6.5225 54.1361 6.8271 Q54.3236 7.1318 54.3236 7.5381 Q54.3236 7.9287 54.1908 8.2178 Q54.058 8.5068 53.8158 8.7021 Q53.5736 8.8975 53.2377 8.9912 Q52.9017 9.085 52.5424 9.085 Q51.8549 9.085 51.3549 8.6162 L50.9486 9.0537 Q50.9486 9.085 50.9017 9.085 L50.8392 9.085 Q50.7299 9.085 50.7299 8.9912 Z"
         id="path97" />
      <path
         style="stroke:none;"
         d="M55.2966 11.71 Q55.2029 11.71 55.2029 11.6162 Q55.2029 11.5693 55.2185 11.5381 Q57.0935 9.71 57.0935 6.21 Q57.0935 2.71 55.2341 0.8975 Q55.2029 0.8662 55.2029 0.8037 Q55.2029 0.7725 55.2263 0.7412 Q55.2498 0.71 55.2966 0.71 L55.3904 0.71 Q55.4216 0.71 55.4529 0.7256 Q56.2341 1.3506 56.7654 2.2412 Q57.2966 3.1318 57.5388 4.1475 Q57.781 5.1631 57.781 6.21 Q57.781 6.9912 57.6482 7.7412 Q57.5154 8.4912 57.2263 9.2256 Q56.9373 9.96 56.4998 10.585 Q56.0623 11.21 55.4529 11.6943 Q55.4216 11.71 55.3904 11.71 L55.2966 11.71 Z"
         id="path99" />
    </g>
    <g
       style="fill:rgb(38,38,38); text-rendering:geometricPrecision; image-rendering:optimizeQuality; color-rendering:optimizeQuality; stroke-linejoin:round; stroke:rgb(38,38,38); color-interpolation:linearRGB; stroke-width:0.6667;"
       id="g117">
      <line
         y2="18"
         style="fill:none;"
         x1="44"
         x2="44"
         y1="214"
         id="line103" />
      <line
         y2="199.4815"
         style="fill:none;"
         x1="44"
         x2="46.66"
         y1="199.4815"
         id="line105" />
      <line
         y2="163.1852"
         style="fill:none;"
         x1="44"
         x2="46.66"
         y1="163.1852"
         id="line107" />
      <line
         y2="126.8889"
         style="fill:none;"
         x1="44"
         x2="46.66"
         y1="126.8889"
         id="line109" />
      <line
         y2="90.5926"
         style="fill:none;"
         x1="44"
         x2="46.66"
         y1="90.5926"
         id="line111" />
      <line
         y2="54.2963"
         style="fill:none;"
         x1="44"
         x2="46.66"
         y1="54.2963"
         id="line113" />
      <line
         y2="18"
         style="fill:none;"
         x1="44"
         x2="46.66"
         y1="18"
         id="line115" />
    </g>
    <g
       transform="translate(41.8667,199.4815)"
       style="font-size:10.6667px; fill:rgb(38,38,38); text-rendering:geometricPrecision; color-rendering:optimizeQuality; image-rendering:optimizeQuality; stroke:rgb(38,38,38); color-interpolation:linearRGB;"
       id="g121">
      <path
         style="stroke:none;"
         d="M-5.8125 -4.5156 L-1.5469 -4.5156 L-1.5469 -3.6094 L-4.8125 -3.6094 L-4.8125 -1.6406 Q-4.5781 -1.7188 -4.3438 -1.7578 Q-4.1094 -1.7969 -3.875 -1.7969 Q-2.5312 -1.7969 -1.75 -1.0625 Q-0.9688 -0.3281 -0.9688 0.9219 Q-0.9688 2.2188 -1.7734 2.9375 Q-2.5781 3.6562 -4.0469 3.6562 Q-4.5469 3.6562 -5.0703 3.5703 Q-5.5938 3.4844 -6.1562 3.3125 L-6.1562 2.2188 Q-5.6719 2.4844 -5.1562 2.6172 Q-4.6406 2.75 -4.0625 2.75 Q-3.125 2.75 -2.5859 2.2578 Q-2.0469 1.7656 -2.0469 0.9219 Q-2.0469 0.0938 -2.5859 -0.3984 Q-3.125 -0.8906 -4.0625 -0.8906 Q-4.5 -0.8906 -4.9297 -0.7891 Q-5.3594 -0.6875 -5.8125 -0.4844 L-5.8125 -4.5156 Z"
         id="path119" />
    </g>
    <g
       transform="translate(41.8667,163.1852)"
       style="font-size:10.6667px; fill:rgb(38,38,38); text-rendering:geometricPrecision; color-rendering:optimizeQuality; image-rendering:optimizeQuality; stroke:rgb(38,38,38); color-interpolation:linearRGB;"
       id="g125">
      <path
         style="stroke:none;"
         d="M-12.6406 2.5938 L-10.8594 2.5938 L-10.8594 -3.5312 L-12.7969 -3.1406 L-12.7969 -4.125 L-10.875 -4.5156 L-9.7812 -4.5156 L-9.7812 2.5938 L-8.0156 2.5938 L-8.0156 3.5 L-12.6406 3.5 L-12.6406 2.5938 ZM-3.7202 -3.8125 Q-4.5639 -3.8125 -4.9858 -2.9844 Q-5.4077 -2.1562 -5.4077 -0.5 Q-5.4077 1.1406 -4.9858 1.9688 Q-4.5639 2.7969 -3.7202 2.7969 Q-2.8764 2.7969 -2.4545 1.9688 Q-2.0327 1.1406 -2.0327 -0.5 Q-2.0327 -2.1562 -2.4545 -2.9844 Q-2.8764 -3.8125 -3.7202 -3.8125 ZM-3.7202 -4.6719 Q-2.3764 -4.6719 -1.6655 -3.6016 Q-0.9545 -2.5312 -0.9545 -0.5 Q-0.9545 1.5156 -1.6655 2.5859 Q-2.3764 3.6562 -3.7202 3.6562 Q-5.0639 3.6562 -5.7827 2.5859 Q-6.5014 1.5156 -6.5014 -0.5 Q-6.5014 -2.5312 -5.7827 -3.6016 Q-5.0639 -4.6719 -3.7202 -4.6719 Z"
         id="path123" />
    </g>
    <g
       transform="translate(41.8667,126.8889)"
       style="font-size:10.6667px; fill:rgb(38,38,38); text-rendering:geometricPrecision; color-rendering:optimizeQuality; image-rendering:optimizeQuality; stroke:rgb(38,38,38); color-interpolation:linearRGB;"
       id="g129">
      <path
         style="stroke:none;"
         d="M-12.6406 2.5938 L-10.8594 2.5938 L-10.8594 -3.5312 L-12.7969 -3.1406 L-12.7969 -4.125 L-10.875 -4.5156 L-9.7812 -4.5156 L-9.7812 2.5938 L-8.0156 2.5938 L-8.0156 3.5 L-12.6406 3.5 L-12.6406 2.5938 ZM-6.0327 -4.5156 L-1.767 -4.5156 L-1.767 -3.6094 L-5.0327 -3.6094 L-5.0327 -1.6406 Q-4.7983 -1.7188 -4.5639 -1.7578 Q-4.3295 -1.7969 -4.0952 -1.7969 Q-2.7514 -1.7969 -1.9702 -1.0625 Q-1.1889 -0.3281 -1.1889 0.9219 Q-1.1889 2.2188 -1.9936 2.9375 Q-2.7983 3.6562 -4.267 3.6562 Q-4.767 3.6562 -5.2905 3.5703 Q-5.8139 3.4844 -6.3764 3.3125 L-6.3764 2.2188 Q-5.892 2.4844 -5.3764 2.6172 Q-4.8608 2.75 -4.2827 2.75 Q-3.3452 2.75 -2.8061 2.2578 Q-2.267 1.7656 -2.267 0.9219 Q-2.267 0.0938 -2.8061 -0.3984 Q-3.3452 -0.8906 -4.2827 -0.8906 Q-4.7202 -0.8906 -5.1499 -0.7891 Q-5.5795 -0.6875 -6.0327 -0.4844 L-6.0327 -4.5156 Z"
         id="path127" />
    </g>
    <g
       transform="translate(41.8667,90.5926)"
       style="font-size:10.6667px; fill:rgb(38,38,38); text-rendering:geometricPrecision; color-rendering:optimizeQuality; image-rendering:optimizeQuality; stroke:rgb(38,38,38); color-interpolation:linearRGB;"
       id="g133">
      <path
         style="stroke:none;"
         d="M-11.8906 2.5938 L-8.1094 2.5938 L-8.1094 3.5 L-13.1875 3.5 L-13.1875 2.5938 Q-12.5781 1.9531 -11.5078 0.875 Q-10.4375 -0.2031 -10.1719 -0.5156 Q-9.6562 -1.1094 -9.4453 -1.5156 Q-9.2344 -1.9219 -9.2344 -2.3125 Q-9.2344 -2.9531 -9.6797 -3.3516 Q-10.125 -3.75 -10.8594 -3.75 Q-11.3594 -3.75 -11.9297 -3.5703 Q-12.5 -3.3906 -13.1406 -3.0312 L-13.1406 -4.125 Q-12.4844 -4.3906 -11.9141 -4.5312 Q-11.3438 -4.6719 -10.875 -4.6719 Q-9.625 -4.6719 -8.8828 -4.0469 Q-8.1406 -3.4219 -8.1406 -2.375 Q-8.1406 -1.875 -8.3281 -1.4375 Q-8.5156 -1 -9 -0.3906 Q-9.1406 -0.2344 -9.8594 0.5078 Q-10.5781 1.25 -11.8906 2.5938 ZM-3.7202 -3.8125 Q-4.5639 -3.8125 -4.9858 -2.9844 Q-5.4077 -2.1562 -5.4077 -0.5 Q-5.4077 1.1406 -4.9858 1.9688 Q-4.5639 2.7969 -3.7202 2.7969 Q-2.8764 2.7969 -2.4545 1.9688 Q-2.0327 1.1406 -2.0327 -0.5 Q-2.0327 -2.1562 -2.4545 -2.9844 Q-2.8764 -3.8125 -3.7202 -3.8125 ZM-3.7202 -4.6719 Q-2.3764 -4.6719 -1.6655 -3.6016 Q-0.9545 -2.5312 -0.9545 -0.5 Q-0.9545 1.5156 -1.6655 2.5859 Q-2.3764 3.6562 -3.7202 3.6562 Q-5.0639 3.6562 -5.7827 2.5859 Q-6.5014 1.5156 -6.5014 -0.5 Q-6.5014 -2.5312 -5.7827 -3.6016 Q-5.0639 -4.6719 -3.7202 -4.6719 Z"
         id="path131" />
    </g>
    <g
       transform="translate(41.8667,54.2963)"
       style="font-size:10.6667px; fill:rgb(38,38,38); text-rendering:geometricPrecision; color-rendering:optimizeQuality; image-rendering:optimizeQuality; stroke:rgb(38,38,38); color-interpolation:linearRGB;"
       id="g137">
      <path
         style="stroke:none;"
         d="M-11.8906 2.5938 L-8.1094 2.5938 L-8.1094 3.5 L-13.1875 3.5 L-13.1875 2.5938 Q-12.5781 1.9531 -11.5078 0.875 Q-10.4375 -0.2031 -10.1719 -0.5156 Q-9.6562 -1.1094 -9.4453 -1.5156 Q-9.2344 -1.9219 -9.2344 -2.3125 Q-9.2344 -2.9531 -9.6797 -3.3516 Q-10.125 -3.75 -10.8594 -3.75 Q-11.3594 -3.75 -11.9297 -3.5703 Q-12.5 -3.3906 -13.1406 -3.0312 L-13.1406 -4.125 Q-12.4844 -4.3906 -11.9141 -4.5312 Q-11.3438 -4.6719 -10.875 -4.6719 Q-9.625 -4.6719 -8.8828 -4.0469 Q-8.1406 -3.4219 -8.1406 -2.375 Q-8.1406 -1.875 -8.3281 -1.4375 Q-8.5156 -1 -9 -0.3906 Q-9.1406 -0.2344 -9.8594 0.5078 Q-10.5781 1.25 -11.8906 2.5938 ZM-6.0327 -4.5156 L-1.767 -4.5156 L-1.767 -3.6094 L-5.0327 -3.6094 L-5.0327 -1.6406 Q-4.7983 -1.7188 -4.5639 -1.7578 Q-4.3295 -1.7969 -4.0952 -1.7969 Q-2.7514 -1.7969 -1.9702 -1.0625 Q-1.1889 -0.3281 -1.1889 0.9219 Q-1.1889 2.2188 -1.9936 2.9375 Q-2.7983 3.6562 -4.267 3.6562 Q-4.767 3.6562 -5.2905 3.5703 Q-5.8139 3.4844 -6.3764 3.3125 L-6.3764 2.2188 Q-5.892 2.4844 -5.3764 2.6172 Q-4.8608 2.75 -4.2827 2.75 Q-3.3452 2.75 -2.8061 2.2578 Q-2.267 1.7656 -2.267 0.9219 Q-2.267 0.0938 -2.8061 -0.3984 Q-3.3452 -0.8906 -4.2827 -0.8906 Q-4.7202 -0.8906 -5.1499 -0.7891 Q-5.5795 -0.6875 -6.0327 -0.4844 L-6.0327 -4.5156 Z"
         id="path135" />
    </g>
    <g
       transform="translate(41.8667,18)"
       style="font-size:10.6667px; fill:rgb(38,38,38); text-rendering:geometricPrecision; color-rendering:optimizeQuality; image-rendering:optimizeQuality; stroke:rgb(38,38,38); color-interpolation:linearRGB;"
       id="g141">
      <path
         style="stroke:none;"
         d="M-9.5312 -0.8281 Q-8.75 -0.6562 -8.3125 -0.1328 Q-7.875 0.3906 -7.875 1.1719 Q-7.875 2.3594 -8.6953 3.0078 Q-9.5156 3.6562 -11.0156 3.6562 Q-11.5312 3.6562 -12.0625 3.5547 Q-12.5938 3.4531 -13.1562 3.2656 L-13.1562 2.2031 Q-12.7031 2.4688 -12.1719 2.6094 Q-11.6406 2.75 -11.0469 2.75 Q-10.0312 2.75 -9.5 2.3438 Q-8.9688 1.9375 -8.9688 1.1719 Q-8.9688 0.4531 -9.4609 0.0547 Q-9.9531 -0.3438 -10.8438 -0.3438 L-11.7812 -0.3438 L-11.7812 -1.2344 L-10.7969 -1.2344 Q-10 -1.2344 -9.5781 -1.5547 Q-9.1562 -1.875 -9.1562 -2.4688 Q-9.1562 -3.0938 -9.5938 -3.4219 Q-10.0312 -3.75 -10.8438 -3.75 Q-11.2812 -3.75 -11.7969 -3.6562 Q-12.3125 -3.5625 -12.9219 -3.3594 L-12.9219 -4.3281 Q-12.2969 -4.5 -11.7578 -4.5859 Q-11.2188 -4.6719 -10.75 -4.6719 Q-9.5156 -4.6719 -8.7891 -4.1094 Q-8.0625 -3.5469 -8.0625 -2.5781 Q-8.0625 -1.9219 -8.4453 -1.4609 Q-8.8281 -1 -9.5312 -0.8281 ZM-3.7202 -3.8125 Q-4.5639 -3.8125 -4.9858 -2.9844 Q-5.4077 -2.1562 -5.4077 -0.5 Q-5.4077 1.1406 -4.9858 1.9688 Q-4.5639 2.7969 -3.7202 2.7969 Q-2.8764 2.7969 -2.4545 1.9688 Q-2.0327 1.1406 -2.0327 -0.5 Q-2.0327 -2.1562 -2.4545 -2.9844 Q-2.8764 -3.8125 -3.7202 -3.8125 ZM-3.7202 -4.6719 Q-2.3764 -4.6719 -1.6655 -3.6016 Q-0.9545 -2.5312 -0.9545 -0.5 Q-0.9545 1.5156 -1.6655 2.5859 Q-2.3764 3.6562 -3.7202 3.6562 Q-5.0639 3.6562 -5.7827 2.5859 Q-6.5014 1.5156 -6.5014 -0.5 Q-6.5014 -2.5312 -5.7827 -3.6016 Q-5.0639 -4.6719 -3.7202 -4.6719 Z"
         id="path139" />
    </g>
    <g
       transform="translate(26.5333,115.9999) rotate(-90)"
       style="font-size:10.6667px; fill:rgb(38,38,38); text-rendering:geometricPrecision; image-rendering:optimizeQuality; color-rendering:optimizeQuality; font-family:'mwa_cmr10'; stroke:rgb(38,38,38); color-interpolation:linearRGB;"
       id="g177">
      <path
         style="stroke:none;"
         d="M-40.4361 -3.715 Q-41.0923 -3.715 -41.6392 -4.0588 Q-42.1861 -4.4025 -42.4986 -4.9807 Q-42.8111 -5.5588 -42.8111 -6.215 Q-42.8111 -6.8713 -42.4986 -7.465 Q-42.1861 -8.0588 -41.6392 -8.4182 Q-41.0923 -8.7775 -40.4361 -8.7775 Q-39.7798 -8.7775 -39.2564 -8.5197 Q-38.7329 -8.2619 -38.7329 -7.6838 Q-38.7329 -7.4807 -38.8814 -7.3166 Q-39.0298 -7.1525 -39.2486 -7.1525 Q-39.4673 -7.1525 -39.6236 -7.3166 Q-39.7798 -7.4807 -39.7798 -7.6838 Q-39.7798 -7.8869 -39.6548 -8.0275 Q-39.5298 -8.1682 -39.3579 -8.1994 Q-39.7329 -8.4494 -40.4204 -8.4494 Q-40.9517 -8.4494 -41.272 -8.0979 Q-41.5923 -7.7463 -41.7173 -7.2307 Q-41.8423 -6.715 -41.8423 -6.215 Q-41.8423 -5.6838 -41.6861 -5.1838 Q-41.5298 -4.6838 -41.1783 -4.3635 Q-40.8267 -4.0432 -40.2954 -4.0432 Q-39.7798 -4.0432 -39.4126 -4.3635 Q-39.0454 -4.6838 -38.9048 -5.1994 Q-38.9048 -5.2619 -38.8267 -5.2619 L-38.6861 -5.2619 Q-38.6548 -5.2619 -38.6314 -5.2307 Q-38.6079 -5.1994 -38.6079 -5.1682 L-38.6079 -5.1369 Q-38.7642 -4.4807 -39.2642 -4.0979 Q-39.7642 -3.715 -40.4361 -3.715 Z"
         id="path143" />
      <path
         style="stroke:none;"
         d="M-35.6797 -3.715 Q-36.336 -3.715 -36.8985 -4.051 Q-37.461 -4.3869 -37.7891 -4.9494 Q-38.1172 -5.5119 -38.1172 -6.1838 Q-38.1172 -6.6838 -37.9375 -7.1525 Q-37.7578 -7.6213 -37.4219 -7.9885 Q-37.086 -8.3557 -36.6406 -8.5666 Q-36.1953 -8.7775 -35.6797 -8.7775 Q-35.0078 -8.7775 -34.4531 -8.4182 Q-33.8985 -8.0588 -33.5703 -7.4572 Q-33.2422 -6.8557 -33.2422 -6.1838 Q-33.2422 -5.5275 -33.5703 -4.9572 Q-33.8985 -4.3869 -34.461 -4.051 Q-35.0235 -3.715 -35.6797 -3.715 ZM-35.6797 -4.0432 Q-34.8047 -4.0432 -34.5078 -4.6838 Q-34.211 -5.3244 -34.211 -6.3088 Q-34.211 -6.8557 -34.2656 -7.2229 Q-34.3203 -7.59 -34.5235 -7.8869 Q-34.6485 -8.0588 -34.836 -8.1994 Q-35.0235 -8.34 -35.2422 -8.4104 Q-35.461 -8.4807 -35.6797 -8.4807 Q-36.0235 -8.4807 -36.336 -8.3244 Q-36.6485 -8.1682 -36.8516 -7.8869 Q-37.0547 -7.5744 -37.1094 -7.1994 Q-37.1641 -6.8244 -37.1641 -6.3088 Q-37.1641 -5.6838 -37.0547 -5.1916 Q-36.9453 -4.6994 -36.625 -4.3713 Q-36.3047 -4.0432 -35.6797 -4.0432 Z"
         id="path145" />
      <path
         style="stroke:none;"
         d="M-32.7682 -3.84 L-32.7682 -4.2307 Q-32.3932 -4.2307 -32.151 -4.2854 Q-31.9089 -4.34 -31.9089 -4.5744 L-31.9089 -7.5744 Q-31.9089 -7.8713 -31.9948 -8.0041 Q-32.0807 -8.1369 -32.2526 -8.1682 Q-32.4245 -8.1994 -32.7682 -8.1994 L-32.7682 -8.59 L-31.1745 -8.6994 L-31.1745 -7.6213 Q-30.9557 -8.1057 -30.5182 -8.4025 Q-30.0807 -8.6994 -29.5807 -8.6994 Q-28.8151 -8.6994 -28.4323 -8.3322 Q-28.0495 -7.965 -28.0495 -7.215 L-28.0495 -4.5744 Q-28.0495 -4.34 -27.8073 -4.2854 Q-27.5651 -4.2307 -27.1901 -4.2307 L-27.1901 -3.84 L-29.7057 -3.84 L-29.7057 -4.2307 Q-29.3307 -4.2307 -29.0885 -4.2854 Q-28.8464 -4.34 -28.8464 -4.5744 L-28.8464 -7.1838 Q-28.8464 -7.7307 -29.0026 -8.0744 Q-29.1589 -8.4182 -29.6432 -8.4182 Q-30.2839 -8.4182 -30.6901 -7.9104 Q-31.0964 -7.4025 -31.0964 -6.7463 L-31.0964 -4.5744 Q-31.0964 -4.34 -30.862 -4.2854 Q-30.6276 -4.2307 -30.2526 -4.2307 L-30.2526 -3.84 L-32.7682 -3.84 Z"
         id="path147" />
      <path
         style="stroke:none;"
         d="M-26.3417 -5.1682 L-26.3417 -8.1994 L-27.2636 -8.1994 L-27.2636 -8.4807 Q-26.5448 -8.4807 -26.2011 -9.1525 Q-25.8573 -9.8244 -25.8573 -10.6057 L-25.5448 -10.6057 L-25.5448 -8.59 L-23.998 -8.59 L-23.998 -8.1994 L-25.5448 -8.1994 L-25.5448 -5.1838 Q-25.5448 -4.7307 -25.3886 -4.3869 Q-25.2323 -4.0432 -24.8417 -4.0432 Q-24.4667 -4.0432 -24.3027 -4.4025 Q-24.1386 -4.7619 -24.1386 -5.1838 L-24.1386 -5.84 L-23.8105 -5.84 L-23.8105 -5.1682 Q-23.8105 -4.8244 -23.9355 -4.4885 Q-24.0605 -4.1525 -24.3105 -3.9338 Q-24.5605 -3.715 -24.9198 -3.715 Q-25.5761 -3.715 -25.9589 -4.1135 Q-26.3417 -4.5119 -26.3417 -5.1682 Z"
         id="path149" />
      <path
         style="stroke:none;"
         d="M-23.0373 -3.84 L-23.0373 -4.2307 Q-22.6623 -4.2307 -22.4201 -4.2854 Q-22.1779 -4.34 -22.1779 -4.5744 L-22.1779 -7.5744 Q-22.1779 -7.8713 -22.2639 -8.0041 Q-22.3498 -8.1369 -22.5139 -8.1682 Q-22.6779 -8.1994 -23.0373 -8.1994 L-23.0373 -8.59 L-21.4592 -8.6994 L-21.4592 -7.6213 Q-21.2873 -8.1057 -20.9592 -8.4025 Q-20.6311 -8.6994 -20.1623 -8.6994 Q-19.8342 -8.6994 -19.5764 -8.5041 Q-19.3186 -8.3088 -19.3186 -7.9963 Q-19.3186 -7.7932 -19.4592 -7.6447 Q-19.5998 -7.4963 -19.8186 -7.4963 Q-20.0217 -7.4963 -20.1623 -7.6447 Q-20.3029 -7.7932 -20.3029 -7.9963 Q-20.3029 -8.2932 -20.0998 -8.4182 L-20.1623 -8.4182 Q-20.5998 -8.4182 -20.8811 -8.0979 Q-21.1623 -7.7775 -21.2873 -7.2932 Q-21.4123 -6.8088 -21.4123 -6.3869 L-21.4123 -4.5744 Q-21.4123 -4.2307 -20.3342 -4.2307 L-20.3342 -3.84 L-23.0373 -3.84 Z"
         id="path151" />
      <path
         style="stroke:none;"
         d="M-16.3908 -3.715 Q-17.047 -3.715 -17.6095 -4.051 Q-18.172 -4.3869 -18.5001 -4.9494 Q-18.8283 -5.5119 -18.8283 -6.1838 Q-18.8283 -6.6838 -18.6486 -7.1525 Q-18.4689 -7.6213 -18.133 -7.9885 Q-17.797 -8.3557 -17.3517 -8.5666 Q-16.9064 -8.7775 -16.3908 -8.7775 Q-15.7189 -8.7775 -15.1642 -8.4182 Q-14.6095 -8.0588 -14.2814 -7.4572 Q-13.9533 -6.8557 -13.9533 -6.1838 Q-13.9533 -5.5275 -14.2814 -4.9572 Q-14.6095 -4.3869 -15.172 -4.051 Q-15.7345 -3.715 -16.3908 -3.715 ZM-16.3908 -4.0432 Q-15.5158 -4.0432 -15.2189 -4.6838 Q-14.922 -5.3244 -14.922 -6.3088 Q-14.922 -6.8557 -14.9767 -7.2229 Q-15.0314 -7.59 -15.2345 -7.8869 Q-15.3595 -8.0588 -15.547 -8.1994 Q-15.7345 -8.34 -15.9533 -8.4104 Q-16.172 -8.4807 -16.3908 -8.4807 Q-16.7345 -8.4807 -17.047 -8.3244 Q-17.3595 -8.1682 -17.5626 -7.8869 Q-17.7658 -7.5744 -17.8205 -7.1994 Q-17.8751 -6.8244 -17.8751 -6.3088 Q-17.8751 -5.6838 -17.7658 -5.1916 Q-17.6564 -4.6994 -17.3361 -4.3713 Q-17.0158 -4.0432 -16.3908 -4.0432 Z"
         id="path153" />
      <path
         style="stroke:none;"
         d="M-13.4637 -3.84 L-13.4637 -4.2307 Q-13.0887 -4.2307 -12.8465 -4.2854 Q-12.6043 -4.34 -12.6043 -4.5744 L-12.6043 -10.3557 Q-12.6043 -10.6525 -12.698 -10.7775 Q-12.7918 -10.9025 -12.9559 -10.9338 Q-13.1199 -10.965 -13.4637 -10.965 L-13.4637 -11.3557 L-11.8387 -11.465 L-11.8387 -4.5744 Q-11.8387 -4.34 -11.5965 -4.2854 Q-11.3543 -4.2307 -10.9793 -4.2307 L-10.9793 -3.84 L-13.4637 -3.84 Z"
         id="path155" />
      <path
         style="stroke:none;"
         d="M-6.9608 -3.84 L-6.9608 -4.2307 Q-6.5858 -4.2307 -6.3436 -4.2854 Q-6.1014 -4.34 -6.1014 -4.5744 L-6.1014 -10.3557 Q-6.1014 -10.6525 -6.1873 -10.7775 Q-6.2733 -10.9025 -6.4451 -10.9338 Q-6.617 -10.965 -6.9608 -10.965 L-6.9608 -11.3557 L-5.3358 -11.465 L-5.3358 -7.6838 Q-5.1014 -8.1525 -4.6873 -8.426 Q-4.2733 -8.6994 -3.7733 -8.6994 Q-3.0076 -8.6994 -2.6248 -8.3322 Q-2.242 -7.965 -2.242 -7.215 L-2.242 -4.5744 Q-2.242 -4.34 -1.9998 -4.2854 Q-1.7576 -4.2307 -1.3826 -4.2307 L-1.3826 -3.84 L-3.8983 -3.84 L-3.8983 -4.2307 Q-3.5233 -4.2307 -3.2811 -4.2854 Q-3.0389 -4.34 -3.0389 -4.5744 L-3.0389 -7.1838 Q-3.0389 -7.7307 -3.1951 -8.0744 Q-3.3514 -8.4182 -3.8358 -8.4182 Q-4.4764 -8.4182 -4.8826 -7.9104 Q-5.2889 -7.4025 -5.2889 -6.7463 L-5.2889 -4.5744 Q-5.2889 -4.34 -5.0545 -4.2854 Q-4.8201 -4.2307 -4.4451 -4.2307 L-4.4451 -3.84 L-6.9608 -3.84 Z"
         id="path157" />
      <path
         style="stroke:none;"
         d="M1.387 -3.715 Q0.7308 -3.715 0.1683 -4.051 Q-0.3942 -4.3869 -0.7223 -4.9494 Q-1.0505 -5.5119 -1.0505 -6.1838 Q-1.0505 -6.6838 -0.8708 -7.1525 Q-0.6911 -7.6213 -0.3551 -7.9885 Q-0.0192 -8.3557 0.4261 -8.5666 Q0.8714 -8.7775 1.387 -8.7775 Q2.0589 -8.7775 2.6136 -8.4182 Q3.1683 -8.0588 3.4964 -7.4572 Q3.8245 -6.8557 3.8245 -6.1838 Q3.8245 -5.5275 3.4964 -4.9572 Q3.1683 -4.3869 2.6058 -4.051 Q2.0433 -3.715 1.387 -3.715 ZM1.387 -4.0432 Q2.262 -4.0432 2.5589 -4.6838 Q2.8558 -5.3244 2.8558 -6.3088 Q2.8558 -6.8557 2.8011 -7.2229 Q2.7464 -7.59 2.5433 -7.8869 Q2.4183 -8.0588 2.2308 -8.1994 Q2.0433 -8.34 1.8245 -8.4104 Q1.6058 -8.4807 1.387 -8.4807 Q1.0433 -8.4807 0.7308 -8.3244 Q0.4183 -8.1682 0.2152 -7.8869 Q0.012 -7.5744 -0.0426 -7.1994 Q-0.0973 -6.8244 -0.0973 -6.3088 Q-0.0973 -5.6838 0.012 -5.1916 Q0.1214 -4.6994 0.4417 -4.3713 Q0.762 -4.0432 1.387 -4.0432 Z"
         id="path159" />
      <path
         style="stroke:none;"
         d="M4.2516 -3.84 L4.2516 -4.2307 Q4.6266 -4.2307 4.8688 -4.2854 Q5.111 -4.34 5.111 -4.5744 L5.111 -7.5744 Q5.111 -7.8713 5.0251 -8.0041 Q4.9391 -8.1369 4.7751 -8.1682 Q4.611 -8.1994 4.2516 -8.1994 L4.2516 -8.59 L5.8298 -8.6994 L5.8298 -7.6213 Q6.0016 -8.1057 6.3298 -8.4025 Q6.6579 -8.6994 7.1266 -8.6994 Q7.4548 -8.6994 7.7126 -8.5041 Q7.9704 -8.3088 7.9704 -7.9963 Q7.9704 -7.7932 7.8298 -7.6447 Q7.6891 -7.4963 7.4704 -7.4963 Q7.2673 -7.4963 7.1266 -7.6447 Q6.986 -7.7932 6.986 -7.9963 Q6.986 -8.2932 7.1891 -8.4182 L7.1266 -8.4182 Q6.6891 -8.4182 6.4079 -8.0979 Q6.1266 -7.7775 6.0016 -7.2932 Q5.8766 -6.8088 5.8766 -6.3869 L5.8766 -4.5744 Q5.8766 -4.2307 6.9548 -4.2307 L6.9548 -3.84 L4.2516 -3.84 Z"
         id="path161" />
      <path
         style="stroke:none;"
         d="M8.4919 -3.84 L8.4919 -4.2307 Q8.8669 -4.2307 9.1091 -4.2854 Q9.3513 -4.34 9.3513 -4.5744 L9.3513 -7.5744 Q9.3513 -7.9963 9.1872 -8.0979 Q9.0232 -8.1994 8.5388 -8.1994 L8.5388 -8.59 L10.1169 -8.6994 L10.1169 -4.5744 Q10.1169 -4.34 10.3279 -4.2854 Q10.5388 -4.2307 10.8826 -4.2307 L10.8826 -3.84 L8.4919 -3.84 ZM8.9607 -10.59 Q8.9607 -10.84 9.1404 -11.0197 Q9.3201 -11.1994 9.5544 -11.1994 Q9.7107 -11.1994 9.8591 -11.1213 Q10.0076 -11.0432 10.0857 -10.8947 Q10.1638 -10.7463 10.1638 -10.59 Q10.1638 -10.3557 9.9841 -10.176 Q9.8044 -9.9963 9.5544 -9.9963 Q9.3201 -9.9963 9.1404 -10.176 Q8.9607 -10.3557 8.9607 -10.59 Z"
         id="path163" />
      <path
         style="stroke:none;"
         d="M11.5486 -3.84 Q11.4236 -3.84 11.4236 -3.965 L11.4236 -4.0432 Q11.4236 -4.09 11.4549 -4.1213 L14.5174 -8.2932 L13.533 -8.2932 Q13.0643 -8.2932 12.7596 -8.2307 Q12.4549 -8.1682 12.2596 -8.0041 Q12.0643 -7.84 11.9783 -7.5588 Q11.8924 -7.2775 11.8924 -6.7619 L11.5799 -6.7619 L11.6893 -8.59 L15.3768 -8.59 Q15.4236 -8.59 15.4627 -8.551 Q15.5018 -8.5119 15.5018 -8.465 L15.5018 -8.4025 Q15.5018 -8.3557 15.4705 -8.3244 L12.408 -4.1525 L13.4549 -4.1525 Q13.9236 -4.1525 14.244 -4.215 Q14.5643 -4.2775 14.7986 -4.4963 Q15.0018 -4.715 15.0799 -5.0666 Q15.158 -5.4182 15.2049 -5.9338 L15.5174 -5.9338 L15.3299 -3.84 L11.5486 -3.84 Z"
         id="path165" />
      <path
         style="stroke:none;"
         d="M18.6019 -3.715 Q17.9456 -3.715 17.3831 -4.051 Q16.8206 -4.3869 16.4925 -4.9494 Q16.1644 -5.5119 16.1644 -6.1838 Q16.1644 -6.6838 16.3441 -7.1525 Q16.5238 -7.6213 16.8597 -7.9885 Q17.1956 -8.3557 17.641 -8.5666 Q18.0863 -8.7775 18.6019 -8.7775 Q19.2738 -8.7775 19.8285 -8.4182 Q20.3831 -8.0588 20.7113 -7.4572 Q21.0394 -6.8557 21.0394 -6.1838 Q21.0394 -5.5275 20.7113 -4.9572 Q20.3831 -4.3869 19.8206 -4.051 Q19.2581 -3.715 18.6019 -3.715 ZM18.6019 -4.0432 Q19.4769 -4.0432 19.7738 -4.6838 Q20.0706 -5.3244 20.0706 -6.3088 Q20.0706 -6.8557 20.016 -7.2229 Q19.9613 -7.59 19.7581 -7.8869 Q19.6331 -8.0588 19.4456 -8.1994 Q19.2581 -8.34 19.0394 -8.4104 Q18.8206 -8.4807 18.6019 -8.4807 Q18.2581 -8.4807 17.9456 -8.3244 Q17.6331 -8.1682 17.43 -7.8869 Q17.2269 -7.5744 17.1722 -7.1994 Q17.1175 -6.8244 17.1175 -6.3088 Q17.1175 -5.6838 17.2269 -5.1916 Q17.3363 -4.6994 17.6566 -4.3713 Q17.9769 -4.0432 18.6019 -4.0432 Z"
         id="path167" />
      <path
         style="stroke:none;"
         d="M21.5134 -3.84 L21.5134 -4.2307 Q21.8884 -4.2307 22.1306 -4.2854 Q22.3727 -4.34 22.3727 -4.5744 L22.3727 -7.5744 Q22.3727 -7.8713 22.2868 -8.0041 Q22.2009 -8.1369 22.029 -8.1682 Q21.8571 -8.1994 21.5134 -8.1994 L21.5134 -8.59 L23.1071 -8.6994 L23.1071 -7.6213 Q23.3259 -8.1057 23.7634 -8.4025 Q24.2009 -8.6994 24.7009 -8.6994 Q25.4665 -8.6994 25.8493 -8.3322 Q26.2321 -7.965 26.2321 -7.215 L26.2321 -4.5744 Q26.2321 -4.34 26.4743 -4.2854 Q26.7165 -4.2307 27.0915 -4.2307 L27.0915 -3.84 L24.5759 -3.84 L24.5759 -4.2307 Q24.9509 -4.2307 25.1931 -4.2854 Q25.4352 -4.34 25.4352 -4.5744 L25.4352 -7.1838 Q25.4352 -7.7307 25.279 -8.0744 Q25.1227 -8.4182 24.6384 -8.4182 Q23.9977 -8.4182 23.5915 -7.9104 Q23.1852 -7.4025 23.1852 -6.7463 L23.1852 -4.5744 Q23.1852 -4.34 23.4196 -4.2854 Q23.654 -4.2307 24.029 -4.2307 L24.029 -3.84 L21.5134 -3.84 Z"
         id="path169" />
      <path
         style="stroke:none;"
         d="M34.073 -1.1057 Q33.4636 -1.59 33.0183 -2.215 Q32.573 -2.84 32.2917 -3.551 Q32.0105 -4.2619 31.8699 -5.0354 Q31.7292 -5.8088 31.7292 -6.59 Q31.7292 -7.3869 31.8699 -8.1604 Q32.0105 -8.9338 32.2995 -9.6447 Q32.5886 -10.3557 33.0339 -10.9807 Q33.4792 -11.6057 34.073 -12.0744 Q34.073 -12.09 34.1355 -12.09 L34.2292 -12.09 Q34.2605 -12.09 34.2917 -12.0588 Q34.323 -12.0275 34.323 -11.9963 Q34.323 -11.9494 34.2917 -11.9182 Q33.7605 -11.4025 33.4011 -10.801 Q33.0417 -10.1994 32.823 -9.5197 Q32.6042 -8.84 32.5105 -8.1135 Q32.4167 -7.3869 32.4167 -6.59 Q32.4167 -3.09 34.2917 -1.2775 Q34.323 -1.2463 34.323 -1.1838 Q34.323 -1.1525 34.2917 -1.1213 Q34.2605 -1.09 34.2292 -1.09 L34.1355 -1.09 Q34.073 -1.09 34.073 -1.1057 Z"
         id="path171" />
      <path
         style="stroke:none;"
         d="M35.1743 -3.8088 L35.1743 -5.6057 Q35.1743 -5.6838 35.2836 -5.6838 L35.4086 -5.6838 Q35.4711 -5.6838 35.5024 -5.6057 Q35.7993 -4.0119 36.9868 -4.0119 Q37.5024 -4.0119 37.854 -4.2463 Q38.2055 -4.4807 38.2055 -4.9807 Q38.2055 -5.3244 37.9321 -5.5744 Q37.6586 -5.8244 37.2836 -5.9182 L36.5493 -6.0588 Q36.1743 -6.1369 35.8696 -6.3088 Q35.5649 -6.4807 35.3696 -6.7541 Q35.1743 -7.0275 35.1743 -7.4025 Q35.1743 -7.8869 35.4321 -8.1916 Q35.6899 -8.4963 36.0961 -8.6369 Q36.5024 -8.7775 36.9868 -8.7775 Q37.5493 -8.7775 37.9555 -8.465 L38.2836 -8.7463 Q38.2836 -8.7775 38.3305 -8.7775 L38.4086 -8.7775 Q38.4399 -8.7775 38.4711 -8.7463 Q38.5024 -8.715 38.5024 -8.6838 L38.5024 -7.2463 Q38.5024 -7.1369 38.4086 -7.1369 L38.2836 -7.1369 Q38.1899 -7.1369 38.1899 -7.2463 Q38.1899 -7.8088 37.8696 -8.1604 Q37.5493 -8.5119 36.9711 -8.5119 Q36.4711 -8.5119 36.1118 -8.3322 Q35.7524 -8.1525 35.7524 -7.6994 Q35.7524 -7.4025 36.0102 -7.1994 Q36.268 -6.9963 36.6274 -6.9182 L37.3618 -6.7775 Q37.7368 -6.6994 38.0649 -6.4885 Q38.393 -6.2775 38.5805 -5.9729 Q38.768 -5.6682 38.768 -5.2619 Q38.768 -4.8713 38.6352 -4.5822 Q38.5024 -4.2932 38.2602 -4.0979 Q38.018 -3.9025 37.6821 -3.8088 Q37.3461 -3.715 36.9868 -3.715 Q36.2993 -3.715 35.7993 -4.1838 L35.393 -3.7463 Q35.393 -3.715 35.3461 -3.715 L35.2836 -3.715 Q35.1743 -3.715 35.1743 -3.8088 Z"
         id="path173" />
      <path
         style="stroke:none;"
         d="M39.7411 -1.09 Q39.6473 -1.09 39.6473 -1.1838 Q39.6473 -1.2307 39.6629 -1.2619 Q41.5379 -3.09 41.5379 -6.59 Q41.5379 -10.09 39.6786 -11.9025 Q39.6473 -11.9338 39.6473 -11.9963 Q39.6473 -12.0275 39.6707 -12.0588 Q39.6942 -12.09 39.7411 -12.09 L39.8348 -12.09 Q39.8661 -12.09 39.8973 -12.0744 Q40.6786 -11.4494 41.2098 -10.5588 Q41.7411 -9.6682 41.9832 -8.6525 Q42.2254 -7.6369 42.2254 -6.59 Q42.2254 -5.8088 42.0926 -5.0588 Q41.9598 -4.3088 41.6707 -3.5744 Q41.3817 -2.84 40.9442 -2.215 Q40.5067 -1.59 39.8973 -1.1057 Q39.8661 -1.09 39.8348 -1.09 L39.7411 -1.09 Z"
         id="path175" />
    </g>
    <g
       transform="translate(177.0002,16)"
       style="font-size:10.6667px; text-rendering:geometricPrecision; color-rendering:optimizeQuality; image-rendering:optimizeQuality; font-family:'mwa_cmr10'; color-interpolation:linearRGB;"
       id="g203">
      <path
         style="stroke:none;"
         d="M-31.5963 -3.84 L-31.5963 -4.2307 Q-30.4556 -4.2307 -30.4556 -4.5744 L-30.4556 -10.6213 Q-30.4556 -10.965 -31.5963 -10.965 L-31.5963 -11.3557 L-27.5338 -11.3557 Q-26.7838 -11.3557 -26.1588 -11.0275 Q-25.5338 -10.6994 -25.0963 -10.1604 Q-24.6588 -9.6213 -24.4166 -8.9338 Q-24.1744 -8.2463 -24.1744 -7.5275 Q-24.1744 -6.8244 -24.4166 -6.1682 Q-24.6588 -5.5119 -25.1119 -4.9807 Q-25.565 -4.4494 -26.19 -4.1447 Q-26.815 -3.84 -27.5338 -3.84 L-31.5963 -3.84 ZM-29.4713 -4.5744 Q-29.4713 -4.34 -29.3384 -4.2854 Q-29.2056 -4.2307 -28.9088 -4.2307 L-27.815 -4.2307 Q-27.2525 -4.2307 -26.7447 -4.4729 Q-26.2369 -4.715 -25.9088 -5.1525 Q-25.565 -5.6057 -25.44 -6.1838 Q-25.315 -6.7619 -25.315 -7.5275 Q-25.315 -8.3244 -25.44 -8.926 Q-25.565 -9.5275 -25.9088 -9.9963 Q-26.2369 -10.465 -26.7447 -10.715 Q-27.2525 -10.965 -27.815 -10.965 L-28.9088 -10.965 Q-29.1119 -10.965 -29.2213 -10.9494 Q-29.3306 -10.9338 -29.4009 -10.8557 Q-29.4713 -10.7775 -29.4713 -10.6213 L-29.4713 -4.5744 Z"
         id="path179" />
      <path
         style="stroke:none;"
         d="M-22.62 -5.1525 L-22.62 -7.5744 Q-22.62 -7.8713 -22.7059 -8.0041 Q-22.7918 -8.1369 -22.9637 -8.1682 Q-23.1356 -8.1994 -23.4793 -8.1994 L-23.4793 -8.59 L-21.8075 -8.6994 L-21.8075 -5.1525 Q-21.8075 -4.715 -21.7528 -4.4807 Q-21.6981 -4.2463 -21.495 -4.1291 Q-21.2918 -4.0119 -20.8543 -4.0119 Q-20.2606 -4.0119 -19.909 -4.5041 Q-19.5575 -4.9963 -19.5575 -5.6213 L-19.5575 -7.5744 Q-19.5575 -7.8713 -19.6512 -8.0041 Q-19.745 -8.1369 -19.909 -8.1682 Q-20.0731 -8.1994 -20.4168 -8.1994 L-20.4168 -8.59 L-18.7606 -8.6994 L-18.7606 -4.84 Q-18.7606 -4.5432 -18.6747 -4.4182 Q-18.5887 -4.2932 -18.4168 -4.2619 Q-18.245 -4.2307 -17.9012 -4.2307 L-17.9012 -3.84 L-19.5262 -3.715 L-19.5262 -4.6525 Q-19.7293 -4.2307 -20.0965 -3.9729 Q-20.4637 -3.715 -20.9012 -3.715 Q-21.6981 -3.715 -22.159 -4.051 Q-22.62 -4.3869 -22.62 -5.1525 Z"
         id="path181" />
      <path
         style="stroke:none;"
         d="M-17.6003 -3.84 L-17.6003 -4.2307 Q-17.2253 -4.2307 -16.9831 -4.2854 Q-16.7409 -4.34 -16.7409 -4.5744 L-16.7409 -7.5744 Q-16.7409 -7.8713 -16.8268 -8.0041 Q-16.9128 -8.1369 -17.0768 -8.1682 Q-17.2409 -8.1994 -17.6003 -8.1994 L-17.6003 -8.59 L-16.0222 -8.6994 L-16.0222 -7.6213 Q-15.8503 -8.1057 -15.5222 -8.4025 Q-15.194 -8.6994 -14.7253 -8.6994 Q-14.3972 -8.6994 -14.1393 -8.5041 Q-13.8815 -8.3088 -13.8815 -7.9963 Q-13.8815 -7.7932 -14.0222 -7.6447 Q-14.1628 -7.4963 -14.3815 -7.4963 Q-14.5847 -7.4963 -14.7253 -7.6447 Q-14.8659 -7.7932 -14.8659 -7.9963 Q-14.8659 -8.2932 -14.6628 -8.4182 L-14.7253 -8.4182 Q-15.1628 -8.4182 -15.444 -8.0979 Q-15.7253 -7.7775 -15.8503 -7.2932 Q-15.9753 -6.8088 -15.9753 -6.3869 L-15.9753 -4.5744 Q-15.9753 -4.2307 -14.8972 -4.2307 L-14.8972 -3.84 L-17.6003 -3.84 Z"
         id="path183" />
      <path
         style="stroke:none;"
         d="M-13.2662 -4.9182 Q-13.2662 -5.5744 -12.7506 -5.9885 Q-12.235 -6.4025 -11.5084 -6.5666 Q-10.7819 -6.7307 -10.1412 -6.7307 L-10.1412 -7.1838 Q-10.1412 -7.4963 -10.2819 -7.801 Q-10.4225 -8.1057 -10.6803 -8.2932 Q-10.9381 -8.4807 -11.2662 -8.4807 Q-11.985 -8.4807 -12.3756 -8.1525 Q-12.1569 -8.1525 -12.0241 -7.9963 Q-11.8912 -7.84 -11.8912 -7.6213 Q-11.8912 -7.4025 -12.0475 -7.2463 Q-12.2037 -7.09 -12.4069 -7.09 Q-12.6412 -7.09 -12.7975 -7.2463 Q-12.9537 -7.4025 -12.9537 -7.6213 Q-12.9537 -8.1994 -12.4225 -8.4885 Q-11.8912 -8.7775 -11.2662 -8.7775 Q-10.8131 -8.7775 -10.36 -8.5822 Q-9.9069 -8.3869 -9.6256 -8.0354 Q-9.3444 -7.6838 -9.3444 -7.215 L-9.3444 -4.7307 Q-9.3444 -4.5119 -9.2506 -4.3322 Q-9.1569 -4.1525 -8.9537 -4.1525 Q-8.7819 -4.1525 -8.6881 -4.34 Q-8.5944 -4.5275 -8.5944 -4.7307 L-8.5944 -5.4338 L-8.2819 -5.4338 L-8.2819 -4.7307 Q-8.2819 -4.4807 -8.4069 -4.2619 Q-8.5319 -4.0432 -8.7506 -3.9104 Q-8.9694 -3.7775 -9.2194 -3.7775 Q-9.5475 -3.7775 -9.7819 -4.0275 Q-10.0162 -4.2775 -10.0475 -4.6213 Q-10.2506 -4.1994 -10.6412 -3.9572 Q-11.0319 -3.715 -11.485 -3.715 Q-11.9069 -3.715 -12.3131 -3.84 Q-12.7194 -3.965 -12.9928 -4.2307 Q-13.2662 -4.4963 -13.2662 -4.9182 ZM-12.3756 -4.9182 Q-12.3756 -4.5275 -12.0866 -4.2697 Q-11.7975 -4.0119 -11.4225 -4.0119 Q-11.0631 -4.0119 -10.7741 -4.1838 Q-10.485 -4.3557 -10.3131 -4.6682 Q-10.1412 -4.9807 -10.1412 -5.3088 L-10.1412 -6.4494 Q-10.6412 -6.4494 -11.1647 -6.2854 Q-11.6881 -6.1213 -12.0319 -5.7775 Q-12.3756 -5.4338 -12.3756 -4.9182 Z"
         id="path185" />
      <path
         style="stroke:none;"
         d="M-7.2454 -5.1682 L-7.2454 -8.1994 L-8.1673 -8.1994 L-8.1673 -8.4807 Q-7.4485 -8.4807 -7.1048 -9.1525 Q-6.761 -9.8244 -6.761 -10.6057 L-6.4485 -10.6057 L-6.4485 -8.59 L-4.9016 -8.59 L-4.9016 -8.1994 L-6.4485 -8.1994 L-6.4485 -5.1838 Q-6.4485 -4.7307 -6.2923 -4.3869 Q-6.136 -4.0432 -5.7454 -4.0432 Q-5.3704 -4.0432 -5.2063 -4.4025 Q-5.0423 -4.7619 -5.0423 -5.1838 L-5.0423 -5.84 L-4.7141 -5.84 L-4.7141 -5.1682 Q-4.7141 -4.8244 -4.8391 -4.4885 Q-4.9641 -4.1525 -5.2141 -3.9338 Q-5.4641 -3.715 -5.8235 -3.715 Q-6.4798 -3.715 -6.8626 -4.1135 Q-7.2454 -4.5119 -7.2454 -5.1682 Z"
         id="path187" />
      <path
         style="stroke:none;"
         d="M-3.8785 -3.84 L-3.8785 -4.2307 Q-3.5035 -4.2307 -3.2613 -4.2854 Q-3.0191 -4.34 -3.0191 -4.5744 L-3.0191 -7.5744 Q-3.0191 -7.9963 -3.1832 -8.0979 Q-3.3472 -8.1994 -3.8316 -8.1994 L-3.8316 -8.59 L-2.2535 -8.6994 L-2.2535 -4.5744 Q-2.2535 -4.34 -2.0425 -4.2854 Q-1.8316 -4.2307 -1.4879 -4.2307 L-1.4879 -3.84 L-3.8785 -3.84 ZM-3.4097 -10.59 Q-3.4097 -10.84 -3.23 -11.0197 Q-3.0504 -11.1994 -2.816 -11.1994 Q-2.6597 -11.1994 -2.5113 -11.1213 Q-2.3629 -11.0432 -2.2847 -10.8947 Q-2.2066 -10.7463 -2.2066 -10.59 Q-2.2066 -10.3557 -2.3863 -10.176 Q-2.566 -9.9963 -2.816 -9.9963 Q-3.0504 -9.9963 -3.23 -10.176 Q-3.4097 -10.3557 -3.4097 -10.59 Z"
         id="path189" />
      <path
         style="stroke:none;"
         d="M1.4907 -3.715 Q0.8345 -3.715 0.272 -4.051 Q-0.2905 -4.3869 -0.6186 -4.9494 Q-0.9468 -5.5119 -0.9468 -6.1838 Q-0.9468 -6.6838 -0.7671 -7.1525 Q-0.5874 -7.6213 -0.2514 -7.9885 Q0.0845 -8.3557 0.5298 -8.5666 Q0.9751 -8.7775 1.4907 -8.7775 Q2.1626 -8.7775 2.7173 -8.4182 Q3.272 -8.0588 3.6001 -7.4572 Q3.9282 -6.8557 3.9282 -6.1838 Q3.9282 -5.5275 3.6001 -4.9572 Q3.272 -4.3869 2.7095 -4.051 Q2.147 -3.715 1.4907 -3.715 ZM1.4907 -4.0432 Q2.3657 -4.0432 2.6626 -4.6838 Q2.9595 -5.3244 2.9595 -6.3088 Q2.9595 -6.8557 2.9048 -7.2229 Q2.8501 -7.59 2.647 -7.8869 Q2.522 -8.0588 2.3345 -8.1994 Q2.147 -8.34 1.9282 -8.4104 Q1.7095 -8.4807 1.4907 -8.4807 Q1.147 -8.4807 0.8345 -8.3244 Q0.522 -8.1682 0.3189 -7.8869 Q0.1157 -7.5744 0.0611 -7.1994 Q0.0064 -6.8244 0.0064 -6.3088 Q0.0064 -5.6838 0.1157 -5.1916 Q0.2251 -4.6994 0.5454 -4.3713 Q0.8657 -4.0432 1.4907 -4.0432 Z"
         id="path191" />
      <path
         style="stroke:none;"
         d="M4.4022 -3.84 L4.4022 -4.2307 Q4.7772 -4.2307 5.0194 -4.2854 Q5.2616 -4.34 5.2616 -4.5744 L5.2616 -7.5744 Q5.2616 -7.8713 5.1757 -8.0041 Q5.0897 -8.1369 4.9178 -8.1682 Q4.746 -8.1994 4.4022 -8.1994 L4.4022 -8.59 L5.996 -8.6994 L5.996 -7.6213 Q6.2147 -8.1057 6.6522 -8.4025 Q7.0897 -8.6994 7.5897 -8.6994 Q8.3553 -8.6994 8.7382 -8.3322 Q9.121 -7.965 9.121 -7.215 L9.121 -4.5744 Q9.121 -4.34 9.3632 -4.2854 Q9.6053 -4.2307 9.9803 -4.2307 L9.9803 -3.84 L7.4647 -3.84 L7.4647 -4.2307 Q7.8397 -4.2307 8.0819 -4.2854 Q8.3241 -4.34 8.3241 -4.5744 L8.3241 -7.1838 Q8.3241 -7.7307 8.1678 -8.0744 Q8.0116 -8.4182 7.5272 -8.4182 Q6.8866 -8.4182 6.4803 -7.9104 Q6.0741 -7.4025 6.0741 -6.7463 L6.0741 -4.5744 Q6.0741 -4.34 6.3085 -4.2854 Q6.5428 -4.2307 6.9178 -4.2307 L6.9178 -3.84 L4.4022 -3.84 Z"
         id="path193" />
      <path
         style="stroke:none;"
         d="M16.9618 -1.1057 Q16.3525 -1.59 15.9071 -2.215 Q15.4618 -2.84 15.1806 -3.551 Q14.8993 -4.2619 14.7587 -5.0354 Q14.6181 -5.8088 14.6181 -6.59 Q14.6181 -7.3869 14.7587 -8.1604 Q14.8993 -8.9338 15.1884 -9.6447 Q15.4775 -10.3557 15.9228 -10.9807 Q16.3681 -11.6057 16.9618 -12.0744 Q16.9618 -12.09 17.0243 -12.09 L17.1181 -12.09 Q17.1493 -12.09 17.1806 -12.0588 Q17.2118 -12.0275 17.2118 -11.9963 Q17.2118 -11.9494 17.1806 -11.9182 Q16.6493 -11.4025 16.29 -10.801 Q15.9306 -10.1994 15.7118 -9.5197 Q15.4931 -8.84 15.3993 -8.1135 Q15.3056 -7.3869 15.3056 -6.59 Q15.3056 -3.09 17.1806 -1.2775 Q17.2118 -1.2463 17.2118 -1.1838 Q17.2118 -1.1525 17.1806 -1.1213 Q17.1493 -1.09 17.1181 -1.09 L17.0243 -1.09 Q16.9618 -1.09 16.9618 -1.1057 Z"
         id="path195" />
      <path
         style="stroke:none;"
         d="M18.0319 -3.84 L18.0319 -4.2307 Q18.4069 -4.2307 18.6491 -4.2854 Q18.8912 -4.34 18.8912 -4.5744 L18.8912 -10.3557 Q18.8912 -10.6525 18.8053 -10.7775 Q18.7194 -10.9025 18.5475 -10.9338 Q18.3756 -10.965 18.0319 -10.965 L18.0319 -11.3557 L19.6569 -11.465 L19.6569 -7.6838 Q19.8912 -8.1525 20.3053 -8.426 Q20.7194 -8.6994 21.2194 -8.6994 Q21.985 -8.6994 22.3678 -8.3322 Q22.7506 -7.965 22.7506 -7.215 L22.7506 -4.5744 Q22.7506 -4.34 22.9928 -4.2854 Q23.235 -4.2307 23.61 -4.2307 L23.61 -3.84 L21.0944 -3.84 L21.0944 -4.2307 Q21.4694 -4.2307 21.7116 -4.2854 Q21.9537 -4.34 21.9537 -4.5744 L21.9537 -7.1838 Q21.9537 -7.7307 21.7975 -8.0744 Q21.6412 -8.4182 21.1569 -8.4182 Q20.5162 -8.4182 20.11 -7.9104 Q19.7037 -7.4025 19.7037 -6.7463 L19.7037 -4.5744 Q19.7037 -4.34 19.9381 -4.2854 Q20.1725 -4.2307 20.5475 -4.2307 L20.5475 -3.84 L18.0319 -3.84 Z"
         id="path197" />
      <path
         style="stroke:none;"
         d="M23.9109 -3.84 L23.9109 -4.2307 Q24.2859 -4.2307 24.5281 -4.2854 Q24.7703 -4.34 24.7703 -4.5744 L24.7703 -7.5744 Q24.7703 -7.8713 24.6844 -8.0041 Q24.5984 -8.1369 24.4344 -8.1682 Q24.2703 -8.1994 23.9109 -8.1994 L23.9109 -8.59 L25.4891 -8.6994 L25.4891 -7.6213 Q25.6609 -8.1057 25.9891 -8.4025 Q26.3172 -8.6994 26.7859 -8.6994 Q27.1141 -8.6994 27.3719 -8.5041 Q27.6297 -8.3088 27.6297 -7.9963 Q27.6297 -7.7932 27.4891 -7.6447 Q27.3484 -7.4963 27.1297 -7.4963 Q26.9266 -7.4963 26.7859 -7.6447 Q26.6453 -7.7932 26.6453 -7.9963 Q26.6453 -8.2932 26.8484 -8.4182 L26.7859 -8.4182 Q26.3484 -8.4182 26.0672 -8.0979 Q25.7859 -7.7775 25.6609 -7.2932 Q25.5359 -6.8088 25.5359 -6.3869 L25.5359 -4.5744 Q25.5359 -4.2307 26.6141 -4.2307 L26.6141 -3.84 L23.9109 -3.84 Z"
         id="path199" />
      <path
         style="stroke:none;"
         d="M28.5262 -1.09 Q28.4325 -1.09 28.4325 -1.1838 Q28.4325 -1.2307 28.4481 -1.2619 Q30.3231 -3.09 30.3231 -6.59 Q30.3231 -10.09 28.4637 -11.9025 Q28.4325 -11.9338 28.4325 -11.9963 Q28.4325 -12.0275 28.4559 -12.0588 Q28.4793 -12.09 28.5262 -12.09 L28.62 -12.09 Q28.6512 -12.09 28.6825 -12.0744 Q29.4637 -11.4494 29.995 -10.5588 Q30.5262 -9.6682 30.7684 -8.6525 Q31.0106 -7.6369 31.0106 -6.59 Q31.0106 -5.8088 30.8778 -5.0588 Q30.745 -4.3088 30.4559 -3.5744 Q30.1668 -2.84 29.7293 -2.215 Q29.2918 -1.59 28.6825 -1.1057 Q28.6512 -1.09 28.62 -1.09 L28.5262 -1.09 Z"
         id="path201" />
    </g>
    <g
       style="stroke-linecap:butt; text-rendering:geometricPrecision; color-rendering:optimizeQuality; image-rendering:optimizeQuality; stroke-linejoin:round; color-interpolation:linearRGB; stroke-width:1.3333;"
       id="g253">
      <path
         d="M84.8746 214 L87.4708 212.9508 L108.7659 209.3315 L115.3579 207.6507 L128.8167 199.4503 L134.7521 194.3382 L163.463 199.4503 L166.4625 199.593 L167.2739 199.4503 L170.6738 188.859 L172.4784 188.1059"
         style="fill:none; fill-rule:evenodd;"
         id="path205" />
      <path
         d="M189.1456 181.1501 L203.4513 175.1798 L205.1583 174.138 L235.6423 157.5125 L252.3783 151.4643 L273.198 134.6943 L284.6874 105.2234 L299.3538 67.1603 L300.1612 61.9147"
         style="fill:none; fill-rule:evenodd;"
         id="path207" />
      <line
         y2="18"
         style="fill:none;"
         x1="302.9053"
         x2="306.9208"
         y1="44.0872"
         id="line209" />
      <path
         d="M44 206.4547 L44.4365 207.6507 L49.0311 214"
         style="fill:none; fill-rule:evenodd;"
         id="path211" />
      <path
         d="M44 155.416 L44.2512 157.5125 L46.2473 175.1798 L49.9846 188.859 L55.7192 199.0542 L57.1831 199.4503 L55.7192 200.0536 L53.4253 207.6507 L55.7192 209.3784 L61.4665 207.6507 L70.0199 202.0643 L75.0881 199.4503 L87.4708 189.6679 L88.6595 188.859 L106.2407 175.1798 L108.7659 173.9922 L112.6443 170.4988"
         style="fill:none; fill-rule:evenodd;"
         id="path213" />
      <path
         d="M126.0574 158.4171 L127.0616 157.5125 L134.7521 144.5588 L145.3578 134.6943 L162.4954 105.2234 L166.4625 101.5305 L203.381 105.2234 L205.1583 105.4772 L205.9786 105.2234 L252.3783 71.4619 L254.3369 67.1603 L255.1821 65.0918"
         style="fill:none; fill-rule:evenodd;"
         id="path215" />
      <line
         y2="18"
         style="fill:none;"
         x1="262.0058"
         x2="274.4235"
         y1="48.3913"
         id="line217" />
      <path
         d="M44 104.9429 L44.0384 105.2234 L46.1355 134.6943 L49.787 157.5125 L55.7192 174.7964 L57.0435 174.4055"
         style="fill:none; fill-rule:evenodd;"
         id="path219" />
      <path
         d="M73.1916 167.3421 L82.8326 157.5125 L87.4708 144.8277 L94.6516 134.6943 L108.7659 118.824 L129.4586 105.2234 L134.7521 94.7192 L166.4625 72.0826 L174.3085 67.1603 L191.5262 44.0687"
         style="fill:none; fill-rule:evenodd;"
         id="path221" />
      <path
         d="M202.3136 29.601 L205.1583 25.7858 L218.2726 18"
         style="fill:none; fill-rule:evenodd;"
         id="path223" />
      <path
         d="M44 82.4298 L47.1162 105.2234 L48.7697 122.0793"
         style="fill:none; fill-rule:evenodd;"
         id="path225" />
      <path
         d="M51.2237 139.9163 L55.3228 157.5125 L55.7192 158.6673 L67.8394 157.5125 L70.0199 157.0821 L78.4648 134.6943 L87.4708 120.7451 L100.354 105.2234 L108.7659 94.759 L126.1519 67.1603 L134.7521 49.0871 L144.8067 39.3538"
         style="fill:none; fill-rule:evenodd;"
         id="path227" />
      <path
         d="M157.7763 26.7987 L166.4625 18.3901 L166.7545 18"
         style="fill:none; fill-rule:evenodd;"
         id="path229" />
      <line
         y2="78.9074"
         style="fill:none;"
         x1="44.9726"
         x2="46.5841"
         y1="67.1603"
         id="line231" />
      <path
         d="M49.0354 96.7774 L50.1941 105.2234 L53.8789 134.6943 L55.7192 142.4208 L64.16 134.6943 L70.0199 126.1504 L83.9412 105.2234 L87.4708 101.264 L108.7659 74.6017 L113.4537 67.1603 L127.6732 37.278"
         style="fill:none; fill-rule:evenodd;"
         id="path233" />
      <line
         y2="18"
         style="fill:none;"
         x1="135.8749"
         x2="139.2678"
         y1="21.3072"
         id="line235" />
      <path
         d="M47.9956 67.1603 L53.2719 105.2234 L55.7192 122.9783 L67.2412 105.2234 L70.0199 98.7444 L87.4708 81.9426 L98.7795 67.6198"
         style="fill:none; fill-rule:evenodd;"
         id="path237" />
      <line
         y2="18"
         style="fill:none;"
         x1="101.9681"
         x2="107.2086"
         y1="49.9382"
         id="line239" />
      <path
         d="M51.0186 67.1603 L55.7192 100.7921 L57.8972 95.4551"
         style="fill:none; fill-rule:evenodd;"
         id="path241" />
      <line
         y2="67.1603"
         style="fill:none;"
         x1="64.7137"
         x2="69.4441"
         y1="78.7517"
         id="line243" />
      <path
         d="M70.8136 64.9244 L87.4708 59.9596 L91.3202 45.7988"
         style="fill:none; fill-rule:evenodd;"
         id="path245" />
      <line
         y2="18"
         style="fill:none;"
         x1="96.052"
         x2="98.8768"
         y1="28.3918"
         id="line247" />
      <path
         d="M54.0416 67.1603 L55.7192 79.1633 L60.6175 67.1603"
         style="fill:none; fill-rule:evenodd;"
         id="path249" />
      <path
         d="M82.9813 30.6471 L87.4708 29.309 L90.545 18"
         style="fill:none; fill-rule:evenodd;"
         id="path251" />
    </g>
    <g
       transform="translate(180.812,184.628) rotate(-22.6837)"
       style="font-size:9.3333px; text-rendering:geometricPrecision; color-rendering:optimizeQuality; image-rendering:optimizeQuality; font-family:'mwa_cmr10'; color-interpolation:linearRGB;"
       id="g257">
      <path
         style="stroke:none;"
         d="M-3.8386 2.24 L-3.8386 1.9275 Q-2.7136 1.9275 -2.7136 1.6306 L-2.7136 -3.0882 Q-3.1667 -2.8694 -3.8854 -2.8694 L-3.8854 -3.1819 Q-2.7761 -3.1819 -2.2136 -3.76 L-2.0886 -3.76 Q-2.0573 -3.76 -2.0339 -3.7366 Q-2.0104 -3.7132 -2.0104 -3.6819 L-2.0104 1.6306 Q-2.0104 1.9275 -0.8854 1.9275 L-0.8854 2.24 L-3.8386 2.24 Z"
         id="path255" />
    </g>
    <g
       transform="translate(180.812,184.628) rotate(-22.6837)"
       style="font-size:9.3333px; text-rendering:geometricPrecision; color-rendering:optimizeQuality; image-rendering:optimizeQuality; font-family:'mwa_cmr10'; color-interpolation:linearRGB;"
       id="g261">
      <path
         style="stroke:none;"
         d="M2.25 2.4431 Q1.1406 2.4431 0.75 1.529 Q0.3594 0.615 0.3594 -0.635 Q0.3594 -1.4163 0.5 -2.1038 Q0.6406 -2.7913 1.0625 -3.2757 Q1.4844 -3.76 2.25 -3.76 Q2.8438 -3.76 3.2188 -3.471 Q3.5938 -3.1819 3.7969 -2.721 Q4 -2.26 4.0703 -1.7366 Q4.1406 -1.2132 4.1406 -0.635 Q4.1406 0.1462 4 0.8181 Q3.8594 1.49 3.4375 1.9665 Q3.0156 2.4431 2.25 2.4431 ZM2.25 2.2087 Q2.75 2.2087 3 1.6931 Q3.25 1.1775 3.3047 0.5525 Q3.3594 -0.0725 3.3594 -0.7757 Q3.3594 -1.4475 3.3047 -2.0178 Q3.25 -2.5882 3 -3.0569 Q2.75 -3.5257 2.25 -3.5257 Q1.7344 -3.5257 1.4922 -3.0569 Q1.25 -2.5882 1.1953 -2.0178 Q1.1406 -1.4475 1.1406 -0.7757 Q1.1406 -0.2757 1.1641 0.1697 Q1.1875 0.615 1.2891 1.0837 Q1.3906 1.5525 1.625 1.8806 Q1.8594 2.2087 2.25 2.2087 Z"
         id="path259" />
    </g>
    <g
       transform="translate(301.5333,53.001) rotate(-81.2626)"
       style="font-size:9.3333px; text-rendering:geometricPrecision; color-rendering:optimizeQuality; image-rendering:optimizeQuality; font-family:'mwa_cmr10'; color-interpolation:linearRGB;"
       id="g267">
      <path
         style="stroke:none;"
         d="M-3.8386 2.24 L-3.8386 1.9275 Q-2.7136 1.9275 -2.7136 1.6306 L-2.7136 -3.0882 Q-3.1667 -2.8694 -3.8854 -2.8694 L-3.8854 -3.1819 Q-2.7761 -3.1819 -2.2136 -3.76 L-2.0886 -3.76 Q-2.0573 -3.76 -2.0339 -3.7366 Q-2.0104 -3.7132 -2.0104 -3.6819 L-2.0104 1.6306 Q-2.0104 1.9275 -0.8854 1.9275 L-0.8854 2.24 L-3.8386 2.24 Z"
         id="path263" />
      <path
         style="stroke:none;"
         d="M2.25 2.4431 Q1.1406 2.4431 0.75 1.529 Q0.3594 0.615 0.3594 -0.635 Q0.3594 -1.4163 0.5 -2.1038 Q0.6406 -2.7913 1.0625 -3.2757 Q1.4844 -3.76 2.25 -3.76 Q2.8438 -3.76 3.2188 -3.471 Q3.5938 -3.1819 3.7969 -2.721 Q4 -2.26 4.0703 -1.7366 Q4.1406 -1.2132 4.1406 -0.635 Q4.1406 0.1462 4 0.8181 Q3.8594 1.49 3.4375 1.9665 Q3.0156 2.4431 2.25 2.4431 ZM2.25 2.2087 Q2.75 2.2087 3 1.6931 Q3.25 1.1775 3.3047 0.5525 Q3.3594 -0.0725 3.3594 -0.7757 Q3.3594 -1.4475 3.3047 -2.0178 Q3.25 -2.5882 3 -3.0569 Q2.75 -3.5257 2.25 -3.5257 Q1.7344 -3.5257 1.4922 -3.0569 Q1.25 -2.5882 1.1953 -2.0178 Q1.1406 -1.4475 1.1406 -0.7757 Q1.1406 -0.2757 1.1641 0.1697 Q1.1875 0.615 1.2891 1.0837 Q1.3906 1.5525 1.625 1.8806 Q1.8594 2.2087 2.25 2.2087 Z"
         id="path265" />
    </g>
    <g
       transform="translate(119.3508,164.4579) rotate(-42.0546)"
       style="font-size:9.3333px; text-rendering:geometricPrecision; color-rendering:optimizeQuality; image-rendering:optimizeQuality; font-family:'mwa_cmr10'; color-interpolation:linearRGB;"
       id="g273">
      <path
         style="stroke:none;"
         d="M-4.2136 2.24 L-4.2136 2.0056 Q-4.2136 1.9743 -4.1979 1.9431 L-2.8073 0.3962 Q-2.4792 0.0525 -2.2839 -0.1741 Q-2.0886 -0.4007 -1.8932 -0.7053 Q-1.6979 -1.01 -1.5886 -1.3225 Q-1.4792 -1.635 -1.4792 -1.9944 Q-1.4792 -2.3538 -1.6198 -2.6975 Q-1.7604 -3.0413 -2.0261 -3.2366 Q-2.2917 -3.4319 -2.6823 -3.4319 Q-3.0729 -3.4319 -3.3854 -3.1975 Q-3.6979 -2.9632 -3.8229 -2.5882 Q-3.7761 -2.6038 -3.7292 -2.6038 Q-3.5261 -2.6038 -3.3776 -2.471 Q-3.2292 -2.3382 -3.2292 -2.1194 Q-3.2292 -1.9163 -3.3776 -1.7678 Q-3.5261 -1.6194 -3.7292 -1.6194 Q-3.9323 -1.6194 -4.0729 -1.7678 Q-4.2136 -1.9163 -4.2136 -2.1194 Q-4.2136 -2.4475 -4.0886 -2.7444 Q-3.9636 -3.0413 -3.7214 -3.2757 Q-3.4792 -3.51 -3.1823 -3.635 Q-2.8854 -3.76 -2.5417 -3.76 Q-2.0261 -3.76 -1.5807 -3.5413 Q-1.1354 -3.3225 -0.8776 -2.9241 Q-0.6198 -2.5257 -0.6198 -1.9944 Q-0.6198 -1.6038 -0.7917 -1.2522 Q-0.9636 -0.9007 -1.2292 -0.6116 Q-1.4948 -0.3225 -1.9167 0.0447 Q-2.3386 0.4118 -2.4636 0.5368 L-3.4948 1.5056 L-2.6198 1.5056 Q-1.9792 1.5056 -1.5573 1.4978 Q-1.1354 1.49 -1.1042 1.4587 Q-0.9948 1.3493 -0.8854 0.6306 L-0.6198 0.6306 L-0.8854 2.24 L-4.2136 2.24 Z"
         id="path269" />
      <path
         style="stroke:none;"
         d="M2.25 2.4431 Q1.1406 2.4431 0.75 1.529 Q0.3594 0.615 0.3594 -0.635 Q0.3594 -1.4163 0.5 -2.1038 Q0.6406 -2.7913 1.0625 -3.2757 Q1.4844 -3.76 2.25 -3.76 Q2.8438 -3.76 3.2188 -3.471 Q3.5938 -3.1819 3.7969 -2.721 Q4 -2.26 4.0703 -1.7366 Q4.1406 -1.2132 4.1406 -0.635 Q4.1406 0.1462 4 0.8181 Q3.8594 1.49 3.4375 1.9665 Q3.0156 2.4431 2.25 2.4431 ZM2.25 2.2087 Q2.75 2.2087 3 1.6931 Q3.25 1.1775 3.3047 0.5525 Q3.3594 -0.0725 3.3594 -0.7757 Q3.3594 -1.4475 3.3047 -2.0178 Q3.25 -2.5882 3 -3.0569 Q2.75 -3.5257 2.25 -3.5257 Q1.7344 -3.5257 1.4922 -3.0569 Q1.25 -2.5882 1.1953 -2.0178 Q1.1406 -1.4475 1.1406 -0.7757 Q1.1406 -0.2757 1.1641 0.1697 Q1.1875 0.615 1.2891 1.0837 Q1.3906 1.5525 1.625 1.8806 Q1.8594 2.2087 2.25 2.2087 Z"
         id="path271" />
    </g>
    <g
       transform="translate(258.594,56.7415) rotate(-67.8062)"
       style="font-size:9.3333px; text-rendering:geometricPrecision; color-rendering:optimizeQuality; image-rendering:optimizeQuality; font-family:'mwa_cmr10'; color-interpolation:linearRGB;"
       id="g279">
      <path
         style="stroke:none;"
         d="M-4.2136 2.24 L-4.2136 2.0056 Q-4.2136 1.9743 -4.1979 1.9431 L-2.8073 0.3962 Q-2.4792 0.0525 -2.2839 -0.1741 Q-2.0886 -0.4007 -1.8932 -0.7053 Q-1.6979 -1.01 -1.5886 -1.3225 Q-1.4792 -1.635 -1.4792 -1.9944 Q-1.4792 -2.3538 -1.6198 -2.6975 Q-1.7604 -3.0413 -2.0261 -3.2366 Q-2.2917 -3.4319 -2.6823 -3.4319 Q-3.0729 -3.4319 -3.3854 -3.1975 Q-3.6979 -2.9632 -3.8229 -2.5882 Q-3.7761 -2.6038 -3.7292 -2.6038 Q-3.5261 -2.6038 -3.3776 -2.471 Q-3.2292 -2.3382 -3.2292 -2.1194 Q-3.2292 -1.9163 -3.3776 -1.7678 Q-3.5261 -1.6194 -3.7292 -1.6194 Q-3.9323 -1.6194 -4.0729 -1.7678 Q-4.2136 -1.9163 -4.2136 -2.1194 Q-4.2136 -2.4475 -4.0886 -2.7444 Q-3.9636 -3.0413 -3.7214 -3.2757 Q-3.4792 -3.51 -3.1823 -3.635 Q-2.8854 -3.76 -2.5417 -3.76 Q-2.0261 -3.76 -1.5807 -3.5413 Q-1.1354 -3.3225 -0.8776 -2.9241 Q-0.6198 -2.5257 -0.6198 -1.9944 Q-0.6198 -1.6038 -0.7917 -1.2522 Q-0.9636 -0.9007 -1.2292 -0.6116 Q-1.4948 -0.3225 -1.9167 0.0447 Q-2.3386 0.4118 -2.4636 0.5368 L-3.4948 1.5056 L-2.6198 1.5056 Q-1.9792 1.5056 -1.5573 1.4978 Q-1.1354 1.49 -1.1042 1.4587 Q-0.9948 1.3493 -0.8854 0.6306 L-0.6198 0.6306 L-0.8854 2.24 L-4.2136 2.24 Z"
         id="path275" />
      <path
         style="stroke:none;"
         d="M2.25 2.4431 Q1.1406 2.4431 0.75 1.529 Q0.3594 0.615 0.3594 -0.635 Q0.3594 -1.4163 0.5 -2.1038 Q0.6406 -2.7913 1.0625 -3.2757 Q1.4844 -3.76 2.25 -3.76 Q2.8438 -3.76 3.2188 -3.471 Q3.5938 -3.1819 3.7969 -2.721 Q4 -2.26 4.0703 -1.7366 Q4.1406 -1.2132 4.1406 -0.635 Q4.1406 0.1462 4 0.8181 Q3.8594 1.49 3.4375 1.9665 Q3.0156 2.4431 2.25 2.4431 ZM2.25 2.2087 Q2.75 2.2087 3 1.6931 Q3.25 1.1775 3.3047 0.5525 Q3.3594 -0.0725 3.3594 -0.7757 Q3.3594 -1.4475 3.3047 -2.0178 Q3.25 -2.5882 3 -3.0569 Q2.75 -3.5257 2.25 -3.5257 Q1.7344 -3.5257 1.4922 -3.0569 Q1.25 -2.5882 1.1953 -2.0178 Q1.1406 -1.4475 1.1406 -0.7757 Q1.1406 -0.2757 1.1641 0.1697 Q1.1875 0.615 1.2891 1.0837 Q1.3906 1.5525 1.625 1.8806 Q1.8594 2.2087 2.25 2.2087 Z"
         id="path277" />
    </g>
    <g
       transform="translate(65.4114,171.3615) rotate(-23.6578)"
       style="font-size:9.3333px; text-rendering:geometricPrecision; color-rendering:optimizeQuality; image-rendering:optimizeQuality; font-family:'mwa_cmr10'; color-interpolation:linearRGB;"
       id="g285">
      <path
         style="stroke:none;"
         d="M-3.8073 1.5525 Q-3.6042 1.8493 -3.2448 1.9978 Q-2.8854 2.1462 -2.4792 2.1462 Q-1.9479 2.1462 -1.7292 1.7009 Q-1.5104 1.2556 -1.5104 0.6931 Q-1.5104 0.4431 -1.5573 0.1853 Q-1.6042 -0.0725 -1.7136 -0.2913 Q-1.8229 -0.51 -2.0182 -0.6428 Q-2.2136 -0.7757 -2.4792 -0.7757 L-3.0886 -0.7757 Q-3.1667 -0.7757 -3.1667 -0.8538 L-3.1667 -0.9319 Q-3.1667 -1.01 -3.0886 -1.01 L-2.5886 -1.0413 Q-2.2761 -1.0413 -2.0651 -1.2835 Q-1.8542 -1.5257 -1.7604 -1.8616 Q-1.6667 -2.1975 -1.6667 -2.51 Q-1.6667 -2.9475 -1.862 -3.221 Q-2.0573 -3.4944 -2.4792 -3.4944 Q-2.8229 -3.4944 -3.1354 -3.3616 Q-3.4479 -3.2288 -3.6354 -2.9788 Q-3.6042 -2.9788 -3.5964 -2.9788 Q-3.5886 -2.9788 -3.5729 -2.9788 Q-3.3698 -2.9788 -3.2292 -2.8382 Q-3.0886 -2.6975 -3.0886 -2.4944 Q-3.0886 -2.3069 -3.2292 -2.1663 Q-3.3698 -2.0257 -3.5729 -2.0257 Q-3.7604 -2.0257 -3.9011 -2.1663 Q-4.0417 -2.3069 -4.0417 -2.4944 Q-4.0417 -2.885 -3.8151 -3.1741 Q-3.5886 -3.4632 -3.2214 -3.6116 Q-2.8542 -3.76 -2.4792 -3.76 Q-2.1979 -3.76 -1.9011 -3.6741 Q-1.6042 -3.5882 -1.3542 -3.4397 Q-1.1042 -3.2913 -0.9479 -3.0491 Q-0.7917 -2.8069 -0.7917 -2.51 Q-0.7917 -2.135 -0.9636 -1.8147 Q-1.1354 -1.4944 -1.4323 -1.26 Q-1.7292 -1.0257 -2.0729 -0.9163 Q-1.6823 -0.8382 -1.3307 -0.6194 Q-0.9792 -0.4007 -0.7682 -0.0569 Q-0.5573 0.2868 -0.5573 0.6775 Q-0.5573 1.1775 -0.8307 1.5837 Q-1.1042 1.99 -1.5417 2.2165 Q-1.9792 2.4431 -2.4792 2.4431 Q-2.9011 2.4431 -3.3229 2.279 Q-3.7448 2.115 -4.0182 1.7947 Q-4.2917 1.4743 -4.2917 1.0212 Q-4.2917 0.8025 -4.1432 0.654 Q-3.9948 0.5056 -3.7604 0.5056 Q-3.6198 0.5056 -3.5026 0.5759 Q-3.3854 0.6462 -3.3151 0.7634 Q-3.2448 0.8806 -3.2448 1.0212 Q-3.2448 1.24 -3.4011 1.3962 Q-3.5573 1.5525 -3.7604 1.5525 L-3.8073 1.5525 Z"
         id="path281" />
      <path
         style="stroke:none;"
         d="M2.25 2.4431 Q1.1406 2.4431 0.75 1.529 Q0.3594 0.615 0.3594 -0.635 Q0.3594 -1.4163 0.5 -2.1038 Q0.6406 -2.7913 1.0625 -3.2757 Q1.4844 -3.76 2.25 -3.76 Q2.8438 -3.76 3.2188 -3.471 Q3.5938 -3.1819 3.7969 -2.721 Q4 -2.26 4.0703 -1.7366 Q4.1406 -1.2132 4.1406 -0.635 Q4.1406 0.1462 4 0.8181 Q3.8594 1.49 3.4375 1.9665 Q3.0156 2.4431 2.25 2.4431 ZM2.25 2.2087 Q2.75 2.2087 3 1.6931 Q3.25 1.1775 3.3047 0.5525 Q3.3594 -0.0725 3.3594 -0.7757 Q3.3594 -1.4475 3.3047 -2.0178 Q3.25 -2.5882 3 -3.0569 Q2.75 -3.5257 2.25 -3.5257 Q1.7344 -3.5257 1.4922 -3.0569 Q1.25 -2.5882 1.1953 -2.0178 Q1.1406 -1.4475 1.1406 -0.7757 Q1.1406 -0.2757 1.1641 0.1697 Q1.1875 0.615 1.2891 1.0837 Q1.3906 1.5525 1.625 1.8806 Q1.8594 2.2087 2.25 2.2087 Z"
         id="path283" />
    </g>
    <g
       transform="translate(196.9199,36.8349) rotate(-53.3331)"
       style="font-size:9.3333px; text-rendering:geometricPrecision; color-rendering:optimizeQuality; image-rendering:optimizeQuality; font-family:'mwa_cmr10'; color-interpolation:linearRGB;"
       id="g291">
      <path
         style="stroke:none;"
         d="M-3.8073 1.5525 Q-3.6042 1.8493 -3.2448 1.9978 Q-2.8854 2.1462 -2.4792 2.1462 Q-1.9479 2.1462 -1.7292 1.7009 Q-1.5104 1.2556 -1.5104 0.6931 Q-1.5104 0.4431 -1.5573 0.1853 Q-1.6042 -0.0725 -1.7136 -0.2913 Q-1.8229 -0.51 -2.0182 -0.6428 Q-2.2136 -0.7757 -2.4792 -0.7757 L-3.0886 -0.7757 Q-3.1667 -0.7757 -3.1667 -0.8538 L-3.1667 -0.9319 Q-3.1667 -1.01 -3.0886 -1.01 L-2.5886 -1.0413 Q-2.2761 -1.0413 -2.0651 -1.2835 Q-1.8542 -1.5257 -1.7604 -1.8616 Q-1.6667 -2.1975 -1.6667 -2.51 Q-1.6667 -2.9475 -1.862 -3.221 Q-2.0573 -3.4944 -2.4792 -3.4944 Q-2.8229 -3.4944 -3.1354 -3.3616 Q-3.4479 -3.2288 -3.6354 -2.9788 Q-3.6042 -2.9788 -3.5964 -2.9788 Q-3.5886 -2.9788 -3.5729 -2.9788 Q-3.3698 -2.9788 -3.2292 -2.8382 Q-3.0886 -2.6975 -3.0886 -2.4944 Q-3.0886 -2.3069 -3.2292 -2.1663 Q-3.3698 -2.0257 -3.5729 -2.0257 Q-3.7604 -2.0257 -3.9011 -2.1663 Q-4.0417 -2.3069 -4.0417 -2.4944 Q-4.0417 -2.885 -3.8151 -3.1741 Q-3.5886 -3.4632 -3.2214 -3.6116 Q-2.8542 -3.76 -2.4792 -3.76 Q-2.1979 -3.76 -1.9011 -3.6741 Q-1.6042 -3.5882 -1.3542 -3.4397 Q-1.1042 -3.2913 -0.9479 -3.0491 Q-0.7917 -2.8069 -0.7917 -2.51 Q-0.7917 -2.135 -0.9636 -1.8147 Q-1.1354 -1.4944 -1.4323 -1.26 Q-1.7292 -1.0257 -2.0729 -0.9163 Q-1.6823 -0.8382 -1.3307 -0.6194 Q-0.9792 -0.4007 -0.7682 -0.0569 Q-0.5573 0.2868 -0.5573 0.6775 Q-0.5573 1.1775 -0.8307 1.5837 Q-1.1042 1.99 -1.5417 2.2165 Q-1.9792 2.4431 -2.4792 2.4431 Q-2.9011 2.4431 -3.3229 2.279 Q-3.7448 2.115 -4.0182 1.7947 Q-4.2917 1.4743 -4.2917 1.0212 Q-4.2917 0.8025 -4.1432 0.654 Q-3.9948 0.5056 -3.7604 0.5056 Q-3.6198 0.5056 -3.5026 0.5759 Q-3.3854 0.6462 -3.3151 0.7634 Q-3.2448 0.8806 -3.2448 1.0212 Q-3.2448 1.24 -3.4011 1.3962 Q-3.5573 1.5525 -3.7604 1.5525 L-3.8073 1.5525 Z"
         id="path287" />
      <path
         style="stroke:none;"
         d="M2.25 2.4431 Q1.1406 2.4431 0.75 1.529 Q0.3594 0.615 0.3594 -0.635 Q0.3594 -1.4163 0.5 -2.1038 Q0.6406 -2.7913 1.0625 -3.2757 Q1.4844 -3.76 2.25 -3.76 Q2.8438 -3.76 3.2188 -3.471 Q3.5938 -3.1819 3.7969 -2.721 Q4 -2.26 4.0703 -1.7366 Q4.1406 -1.2132 4.1406 -0.635 Q4.1406 0.1462 4 0.8181 Q3.8594 1.49 3.4375 1.9665 Q3.0156 2.4431 2.25 2.4431 ZM2.25 2.2087 Q2.75 2.2087 3 1.6931 Q3.25 1.1775 3.3047 0.5525 Q3.3594 -0.0725 3.3594 -0.7757 Q3.3594 -1.4475 3.3047 -2.0178 Q3.25 -2.5882 3 -3.0569 Q2.75 -3.5257 2.25 -3.5257 Q1.7344 -3.5257 1.4922 -3.0569 Q1.25 -2.5882 1.1953 -2.0178 Q1.1406 -1.4475 1.1406 -0.7757 Q1.1406 -0.2757 1.1641 0.1697 Q1.1875 0.615 1.2891 1.0837 Q1.3906 1.5525 1.625 1.8806 Q1.8594 2.2087 2.25 2.2087 Z"
         id="path289" />
    </g>
    <g
       transform="translate(151.2915,33.0762) rotate(-44.1135)"
       style="font-size:9.3333px; text-rendering:geometricPrecision; color-rendering:optimizeQuality; image-rendering:optimizeQuality; font-family:'mwa_cmr10'; color-interpolation:linearRGB;"
       id="g303">
      <path
         style="stroke:none;"
         d="M-4.4167 0.7556 L-4.4167 0.4431 L-1.6354 -3.7132 Q-1.6042 -3.76 -1.5417 -3.76 L-1.4167 -3.76 Q-1.3073 -3.76 -1.3073 -3.6507 L-1.3073 0.4431 L-0.4323 0.4431 L-0.4323 0.7556 L-1.3073 0.7556 L-1.3073 1.6306 Q-1.3073 1.8181 -1.0417 1.8728 Q-0.7761 1.9275 -0.4323 1.9275 L-0.4323 2.24 L-2.9167 2.24 L-2.9167 1.9275 Q-2.5729 1.9275 -2.3073 1.8728 Q-2.0417 1.8181 -2.0417 1.6306 L-2.0417 0.7556 L-4.4167 0.7556 ZM-4.1198 0.4431 L-1.9792 0.4431 L-1.9792 -2.7444 L-4.1198 0.4431 Z"
         id="path299" />
      <path
         style="stroke:none;"
         d="M2.25 2.4431 Q1.1406 2.4431 0.75 1.529 Q0.3594 0.615 0.3594 -0.635 Q0.3594 -1.4163 0.5 -2.1038 Q0.6406 -2.7913 1.0625 -3.2757 Q1.4844 -3.76 2.25 -3.76 Q2.8438 -3.76 3.2188 -3.471 Q3.5938 -3.1819 3.7969 -2.721 Q4 -2.26 4.0703 -1.7366 Q4.1406 -1.2132 4.1406 -0.635 Q4.1406 0.1462 4 0.8181 Q3.8594 1.49 3.4375 1.9665 Q3.0156 2.4431 2.25 2.4431 ZM2.25 2.2087 Q2.75 2.2087 3 1.6931 Q3.25 1.1775 3.3047 0.5525 Q3.3594 -0.0725 3.3594 -0.7757 Q3.3594 -1.4475 3.3047 -2.0178 Q3.25 -2.5882 3 -3.0569 Q2.75 -3.5257 2.25 -3.5257 Q1.7344 -3.5257 1.4922 -3.0569 Q1.25 -2.5882 1.1953 -2.0178 Q1.1406 -1.4475 1.1406 -0.7757 Q1.1406 -0.2757 1.1641 0.1697 Q1.1875 0.615 1.2891 1.0837 Q1.3906 1.5525 1.625 1.8806 Q1.8594 2.2087 2.25 2.2087 Z"
         id="path301" />
    </g>
    <g
       transform="translate(131.6617,29.2124) rotate(-62.8531)"
       style="font-size:9.3333px; text-rendering:geometricPrecision; color-rendering:optimizeQuality; image-rendering:optimizeQuality; font-family:'mwa_cmr10'; color-interpolation:linearRGB;"
       id="g315">
      <path
         style="stroke:none;"
         d="M-3.8854 1.2087 Q-3.7917 1.4743 -3.6042 1.6931 Q-3.4167 1.9118 -3.1511 2.029 Q-2.8854 2.1462 -2.6042 2.1462 Q-1.9479 2.1462 -1.7057 1.6462 Q-1.4636 1.1462 -1.4636 0.4275 Q-1.4636 0.115 -1.4714 -0.1038 Q-1.4792 -0.3225 -1.5261 -0.51 Q-1.6198 -0.8382 -1.8307 -1.0725 Q-2.0417 -1.3069 -2.3386 -1.3069 Q-2.6354 -1.3069 -2.8542 -1.2132 Q-3.0729 -1.1194 -3.2136 -0.9944 Q-3.3542 -0.8694 -3.4557 -0.7366 Q-3.5573 -0.6038 -3.5886 -0.5882 L-3.6823 -0.5882 Q-3.7136 -0.5882 -3.7448 -0.6194 Q-3.7761 -0.6507 -3.7761 -0.6819 L-3.7761 -3.6819 Q-3.7761 -3.7132 -3.7448 -3.7366 Q-3.7136 -3.76 -3.6823 -3.76 L-3.6667 -3.76 Q-3.0573 -3.4632 -2.3698 -3.4632 Q-1.6979 -3.4632 -1.0886 -3.76 L-1.0573 -3.76 Q-1.0261 -3.76 -1.0026 -3.7366 Q-0.9792 -3.7132 -0.9792 -3.6819 L-0.9792 -3.6038 Q-0.9792 -3.5569 -0.9948 -3.5569 Q-1.3073 -3.1507 -1.7682 -2.9241 Q-2.2292 -2.6975 -2.7292 -2.6975 Q-3.0886 -2.6975 -3.4636 -2.7913 L-3.4636 -1.0882 Q-3.1667 -1.3382 -2.9323 -1.4397 Q-2.6979 -1.5413 -2.3229 -1.5413 Q-1.8386 -1.5413 -1.4401 -1.2522 Q-1.0417 -0.9632 -0.8307 -0.51 Q-0.6198 -0.0569 -0.6198 0.4275 Q-0.6198 0.9743 -0.8854 1.4353 Q-1.1511 1.8962 -1.612 2.1697 Q-2.0729 2.4431 -2.6042 2.4431 Q-3.0417 2.4431 -3.4167 2.2087 Q-3.7917 1.9743 -4.0026 1.5915 Q-4.2136 1.2087 -4.2136 0.7712 Q-4.2136 0.5681 -4.0807 0.4431 Q-3.9479 0.3181 -3.7604 0.3181 Q-3.5573 0.3181 -3.4245 0.4431 Q-3.2917 0.5681 -3.2917 0.7712 Q-3.2917 0.9587 -3.4245 1.0993 Q-3.5573 1.24 -3.7604 1.24 Q-3.7917 1.24 -3.8307 1.2322 Q-3.8698 1.2243 -3.8854 1.2087 Z"
         id="path311" />
      <path
         style="stroke:none;"
         d="M2.25 2.4431 Q1.1406 2.4431 0.75 1.529 Q0.3594 0.615 0.3594 -0.635 Q0.3594 -1.4163 0.5 -2.1038 Q0.6406 -2.7913 1.0625 -3.2757 Q1.4844 -3.76 2.25 -3.76 Q2.8438 -3.76 3.2188 -3.471 Q3.5938 -3.1819 3.7969 -2.721 Q4 -2.26 4.0703 -1.7366 Q4.1406 -1.2132 4.1406 -0.635 Q4.1406 0.1462 4 0.8181 Q3.8594 1.49 3.4375 1.9665 Q3.0156 2.4431 2.25 2.4431 ZM2.25 2.2087 Q2.75 2.2087 3 1.6931 Q3.25 1.1775 3.3047 0.5525 Q3.3594 -0.0725 3.3594 -0.7757 Q3.3594 -1.4475 3.3047 -2.0178 Q3.25 -2.5882 3 -3.0569 Q2.75 -3.5257 2.25 -3.5257 Q1.7344 -3.5257 1.4922 -3.0569 Q1.25 -2.5882 1.1953 -2.0178 Q1.1406 -1.4475 1.1406 -0.7757 Q1.1406 -0.2757 1.1641 0.1697 Q1.1875 0.615 1.2891 1.0837 Q1.3906 1.5525 1.625 1.8806 Q1.8594 2.2087 2.25 2.2087 Z"
         id="path313" />
    </g>
    <g
       transform="translate(100.4408,58.8085) rotate(-79.7928)"
       style="font-size:9.3333px; text-rendering:geometricPrecision; color-rendering:optimizeQuality; image-rendering:optimizeQuality; font-family:'mwa_cmr10'; color-interpolation:linearRGB;"
       id="g321">
      <path
         style="stroke:none;"
         d="M-2.4167 2.4431 Q-2.9792 2.4431 -3.3542 2.1462 Q-3.7292 1.8493 -3.9323 1.3728 Q-4.1354 0.8962 -4.2136 0.3806 Q-4.2917 -0.135 -4.2917 -0.6663 Q-4.2917 -1.385 -4.0104 -2.096 Q-3.7292 -2.8069 -3.1901 -3.2835 Q-2.6511 -3.76 -1.9167 -3.76 Q-1.6198 -3.76 -1.3464 -3.6428 Q-1.0729 -3.5257 -0.9245 -3.2991 Q-0.7761 -3.0725 -0.7761 -2.7444 Q-0.7761 -2.5569 -0.9011 -2.4319 Q-1.0261 -2.3069 -1.2136 -2.3069 Q-1.3854 -2.3069 -1.5104 -2.4397 Q-1.6354 -2.5725 -1.6354 -2.7444 Q-1.6354 -2.9163 -1.5104 -3.0491 Q-1.3854 -3.1819 -1.2136 -3.1819 L-1.1667 -3.1819 Q-1.2761 -3.3382 -1.487 -3.4163 Q-1.6979 -3.4944 -1.9167 -3.4944 Q-2.1979 -3.4944 -2.4245 -3.3772 Q-2.6511 -3.26 -2.8386 -3.0569 Q-3.0261 -2.8538 -3.1511 -2.6116 Q-3.2761 -2.3694 -3.3386 -2.0569 Q-3.4011 -1.7444 -3.4245 -1.471 Q-3.4479 -1.1975 -3.4479 -0.7913 Q-3.2761 -1.1507 -2.987 -1.385 Q-2.6979 -1.6194 -2.3386 -1.6194 Q-1.9323 -1.6194 -1.6042 -1.4553 Q-1.2761 -1.2913 -1.0417 -1.01 Q-0.8073 -0.7288 -0.6823 -0.3538 Q-0.5573 0.0212 -0.5573 0.3962 Q-0.5573 0.9275 -0.7917 1.404 Q-1.0261 1.8806 -1.4479 2.1618 Q-1.8698 2.4431 -2.4167 2.4431 ZM-2.4167 2.1462 Q-2.0729 2.1462 -1.862 1.99 Q-1.6511 1.8337 -1.5495 1.5759 Q-1.4479 1.3181 -1.4245 1.0525 Q-1.4011 0.7868 -1.4011 0.3962 Q-1.4011 -0.1194 -1.4479 -0.4788 Q-1.4948 -0.8382 -1.7136 -1.1116 Q-1.9323 -1.385 -2.3698 -1.385 Q-2.7448 -1.385 -2.9792 -1.1428 Q-3.2136 -0.9007 -3.3151 -0.5178 Q-3.4167 -0.135 -3.4167 0.2087 Q-3.4167 0.3181 -3.4167 0.3806 Q-3.4167 0.3962 -3.4167 0.404 Q-3.4167 0.4118 -3.4167 0.4275 Q-3.4167 0.8181 -3.3386 1.2087 Q-3.2604 1.5993 -3.0417 1.8728 Q-2.8229 2.1462 -2.4167 2.1462 Z"
         id="path317" />
      <path
         style="stroke:none;"
         d="M2.25 2.4431 Q1.1406 2.4431 0.75 1.529 Q0.3594 0.615 0.3594 -0.635 Q0.3594 -1.4163 0.5 -2.1038 Q0.6406 -2.7913 1.0625 -3.2757 Q1.4844 -3.76 2.25 -3.76 Q2.8438 -3.76 3.2188 -3.471 Q3.5938 -3.1819 3.7969 -2.721 Q4 -2.26 4.0703 -1.7366 Q4.1406 -1.2132 4.1406 -0.635 Q4.1406 0.1462 4 0.8181 Q3.8594 1.49 3.4375 1.9665 Q3.0156 2.4431 2.25 2.4431 ZM2.25 2.2087 Q2.75 2.2087 3 1.6931 Q3.25 1.1775 3.3047 0.5525 Q3.3594 -0.0725 3.3594 -0.7757 Q3.3594 -1.4475 3.3047 -2.0178 Q3.25 -2.5882 3 -3.0569 Q2.75 -3.5257 2.25 -3.5257 Q1.7344 -3.5257 1.4922 -3.0569 Q1.25 -2.5882 1.1953 -2.0178 Q1.1406 -1.4475 1.1406 -0.7757 Q1.1406 -0.2757 1.1641 0.1697 Q1.1875 0.615 1.2891 1.0837 Q1.3906 1.5525 1.625 1.8806 Q1.8594 2.2087 2.25 2.2087 Z"
         id="path319" />
    </g>
    <g
       transform="translate(61.3055,87.1034) rotate(-67.8307)"
       style="font-size:9.3333px; text-rendering:geometricPrecision; color-rendering:optimizeQuality; image-rendering:optimizeQuality; font-family:'mwa_cmr10'; color-interpolation:linearRGB;"
       id="g327">
      <path
         style="stroke:none;"
         d="M-3.1042 2.0056 Q-3.1042 1.5056 -3.0182 1.029 Q-2.9323 0.5525 -2.7604 0.0837 Q-2.5886 -0.385 -2.3464 -0.8382 Q-2.1042 -1.2913 -1.8229 -1.6819 L-0.9948 -2.8225 L-2.0261 -2.8225 Q-3.6354 -2.8225 -3.6823 -2.7757 Q-3.7917 -2.635 -3.9011 -1.9475 L-4.1667 -1.9475 L-3.8698 -3.8382 L-3.6042 -3.8382 L-3.6042 -3.8225 Q-3.6042 -3.6507 -3.0573 -3.6038 Q-2.5104 -3.5569 -1.9792 -3.5569 L-0.3073 -3.5569 L-0.3073 -3.3225 Q-0.3073 -3.3225 -0.3073 -3.3147 Q-0.3073 -3.3069 -0.3073 -3.2913 L-1.5573 -1.5569 Q-2.0104 -0.885 -2.1198 -0.0569 Q-2.2292 0.7712 -2.2292 2.0056 Q-2.2292 2.1775 -2.362 2.3103 Q-2.4948 2.4431 -2.6667 2.4431 Q-2.8542 2.4431 -2.9792 2.3103 Q-3.1042 2.1775 -3.1042 2.0056 Z"
         id="path323" />
      <path
         style="stroke:none;"
         d="M2.25 2.4431 Q1.1406 2.4431 0.75 1.529 Q0.3594 0.615 0.3594 -0.635 Q0.3594 -1.4163 0.5 -2.1038 Q0.6406 -2.7913 1.0625 -3.2757 Q1.4844 -3.76 2.25 -3.76 Q2.8438 -3.76 3.2188 -3.471 Q3.5938 -3.1819 3.7969 -2.721 Q4 -2.26 4.0703 -1.7366 Q4.1406 -1.2132 4.1406 -0.635 Q4.1406 0.1462 4 0.8181 Q3.8594 1.49 3.4375 1.9665 Q3.0156 2.4431 2.25 2.4431 ZM2.25 2.2087 Q2.75 2.2087 3 1.6931 Q3.25 1.1775 3.3047 0.5525 Q3.3594 -0.0725 3.3594 -0.7757 Q3.3594 -1.4475 3.3047 -2.0178 Q3.25 -2.5882 3 -3.0569 Q2.75 -3.5257 2.25 -3.5257 Q1.7344 -3.5257 1.4922 -3.0569 Q1.25 -2.5882 1.1953 -2.0178 Q1.1406 -1.4475 1.1406 -0.7757 Q1.1406 -0.2757 1.1641 0.1697 Q1.1875 0.615 1.2891 1.0837 Q1.3906 1.5525 1.625 1.8806 Q1.8594 2.2087 2.25 2.2087 Z"
         id="path325" />
    </g>
    <g
       transform="translate(93.6861,37.0953) rotate(-74.8149)"
       style="font-size:9.3333px; text-rendering:geometricPrecision; color-rendering:optimizeQuality; image-rendering:optimizeQuality; font-family:'mwa_cmr10'; color-interpolation:linearRGB;"
       id="g333">
      <path
         style="stroke:none;"
         d="M-3.1042 2.0056 Q-3.1042 1.5056 -3.0182 1.029 Q-2.9323 0.5525 -2.7604 0.0837 Q-2.5886 -0.385 -2.3464 -0.8382 Q-2.1042 -1.2913 -1.8229 -1.6819 L-0.9948 -2.8225 L-2.0261 -2.8225 Q-3.6354 -2.8225 -3.6823 -2.7757 Q-3.7917 -2.635 -3.9011 -1.9475 L-4.1667 -1.9475 L-3.8698 -3.8382 L-3.6042 -3.8382 L-3.6042 -3.8225 Q-3.6042 -3.6507 -3.0573 -3.6038 Q-2.5104 -3.5569 -1.9792 -3.5569 L-0.3073 -3.5569 L-0.3073 -3.3225 Q-0.3073 -3.3225 -0.3073 -3.3147 Q-0.3073 -3.3069 -0.3073 -3.2913 L-1.5573 -1.5569 Q-2.0104 -0.885 -2.1198 -0.0569 Q-2.2292 0.7712 -2.2292 2.0056 Q-2.2292 2.1775 -2.362 2.3103 Q-2.4948 2.4431 -2.6667 2.4431 Q-2.8542 2.4431 -2.9792 2.3103 Q-3.1042 2.1775 -3.1042 2.0056 Z"
         id="path329" />
      <path
         style="stroke:none;"
         d="M2.25 2.4431 Q1.1406 2.4431 0.75 1.529 Q0.3594 0.615 0.3594 -0.635 Q0.3594 -1.4163 0.5 -2.1038 Q0.6406 -2.7913 1.0625 -3.2757 Q1.4844 -3.76 2.25 -3.76 Q2.8438 -3.76 3.2188 -3.471 Q3.5938 -3.1819 3.7969 -2.721 Q4 -2.26 4.0703 -1.7366 Q4.1406 -1.2132 4.1406 -0.635 Q4.1406 0.1462 4 0.8181 Q3.8594 1.49 3.4375 1.9665 Q3.0156 2.4431 2.25 2.4431 ZM2.25 2.2087 Q2.75 2.2087 3 1.6931 Q3.25 1.1775 3.3047 0.5525 Q3.3594 -0.0725 3.3594 -0.7757 Q3.3594 -1.4475 3.3047 -2.0178 Q3.25 -2.5882 3 -3.0569 Q2.75 -3.5257 2.25 -3.5257 Q1.7344 -3.5257 1.4922 -3.0569 Q1.25 -2.5882 1.1953 -2.0178 Q1.1406 -1.4475 1.1406 -0.7757 Q1.1406 -0.2757 1.1641 0.1697 Q1.1875 0.615 1.2891 1.0837 Q1.3906 1.5525 1.625 1.8806 Q1.8594 2.2087 2.25 2.2087 Z"
         id="path331" />
    </g>
    <path
       style="fill:none;stroke:#000000;stroke-width:1.33;stroke-linecap:butt;stroke-linejoin:miter;stroke-opacity:1;stroke-miterlimit:10;stroke-dasharray:none"
       d="M 49.0354,96.7774 46.584099,78.907402"
       id="path1528" />
    <path
       style="fill:none;stroke:#000000;stroke-width:1.333;stroke-linecap:butt;stroke-linejoin:miter;stroke-opacity:1;stroke-miterlimit:10;stroke-dasharray:none"
       d="m 51.2237,139.9163 -2.454,-17.837"
       id="path1530" />
    <path
       style="fill:none;stroke:#000000;stroke-width:1.333;stroke-linecap:butt;stroke-linejoin:miter;stroke-opacity:1;stroke-miterlimit:10;stroke-dasharray:none"
       d="M 69.444099,67.160301 70.8136,64.9244"
       id="path1532" />
  </g>
</svg>
